<svg width="50" height="50" viewBox="0 0 50 50" fill="none" xmlns="http://www.w3.org/2000/svg">
<rect width="50" height="50" rx="25" fill="black" fill-opacity="0.9"/>
<rect x="0.5" y="0.5" width="49" height="49" rx="24.5" stroke="black" stroke-opacity="0.9"/>
<path d="M24.0452 42.5171C23.6814 42.0839 23.202 41.5237 22.9883 41.2638C22.7688 41.0039 22.532 40.7209 22.4512 40.6342C22.1913 40.3397 21.4173 39.404 20.9091 38.7803C20.6319 38.4395 20.3373 38.0872 20.2564 37.9948C20.1409 37.8677 18.4602 35.7307 18.0213 35.159C17.6401 34.6622 16.7449 33.4494 15.2952 31.4626C14.9718 31.0178 14.3826 30.2439 13.6434 29.2967C13.3719 28.9502 12.933 28.3784 12.6615 28.0261C12.3958 27.6795 11.7028 26.7843 11.1252 26.045C10.0798 24.7109 9.94697 24.4914 10.1491 24.3759C10.1953 24.3528 10.357 24.1737 10.513 23.9831C10.8018 23.6193 11.183 23.163 11.6277 22.6547C12.0666 22.1523 13.5914 20.3387 14.4 19.3626C15.4107 18.1382 15.8381 17.63 16.3868 17.0004C16.9586 16.342 16.9932 16.2958 17.5188 15.6662C17.7556 15.3832 18.004 15.0829 18.0733 15.002C18.1426 14.9212 18.5988 14.3783 19.084 13.7949C20.1467 12.5243 20.1294 12.5416 21.5906 10.809C22.9017 9.25531 23.1905 8.90877 24.0626 7.83451C24.4091 7.41289 24.7383 7.0317 24.8019 6.98549C24.952 6.88153 25.0329 6.94506 25.4949 7.52263C26.1129 8.28501 26.9677 9.31884 27.7359 10.2314C28.504 11.1382 29.1393 11.9063 30.3696 13.4195C30.7796 13.922 31.1319 14.3494 31.1493 14.3667C31.1666 14.3841 31.4496 14.7248 31.7673 15.1233C32.0907 15.5219 32.3852 15.8857 32.4314 15.9319C32.4777 15.9781 32.7722 16.342 33.0956 16.7405C33.4191 17.139 33.7136 17.5029 33.7598 17.5491C33.8003 17.5953 33.9966 17.8263 34.193 18.0631C34.5684 18.5252 35.4001 19.507 36.1163 20.3445C36.3531 20.6217 36.6939 21.026 36.8671 21.2397C37.0404 21.4534 37.5775 22.0772 38.0511 22.6316C39.2871 24.064 39.6972 24.5665 39.6972 24.6531C39.6972 24.7109 39.0792 25.5137 38.9463 25.6292C38.8713 25.6927 37.4909 27.3157 36.7632 28.1936C35.9372 29.187 35.325 29.9147 34.9034 30.3941C34.759 30.5558 34.528 30.8272 34.3836 31.0005C33.8465 31.6474 33.8349 31.6532 33.6848 31.6127C33.6097 31.5954 33.4711 31.4741 33.3729 31.3528C33.1534 31.0756 32.547 30.371 32.1946 29.9898C31.8077 29.5739 30.8663 28.4939 30.7738 28.361C30.7045 28.2571 30.7276 28.2109 31.0222 27.847C31.3687 27.4254 31.5651 27.2002 32.0445 26.6688C32.7664 25.8775 32.8242 25.8025 32.8242 25.6523C32.8242 25.4617 32.6163 24.6069 32.4661 24.1564C31.8366 22.3198 30.4735 20.2752 28.0593 17.5722C27.3893 16.8214 25.8934 14.9096 25.1715 13.8874C25.0444 13.7083 24.9 13.5581 24.8481 13.5581C24.7672 13.5581 24.5477 13.7949 24.334 14.1126C24.2878 14.1819 23.9759 14.5978 23.641 15.0367C23.1038 15.7471 21.735 17.6415 20.9957 18.6984C19.7366 20.4831 18.801 22.1061 18.3794 23.215C18.2812 23.4807 18.183 23.7348 18.1599 23.781C18.131 23.8272 18.079 24.012 18.0386 24.1853C18.004 24.3585 17.9462 24.5434 17.9231 24.5953C17.8942 24.6473 17.8422 24.9881 17.8018 25.3577C17.7441 25.8949 17.7441 26.149 17.8018 26.6803C17.8422 27.0384 17.8942 27.3619 17.9173 27.3907C17.9462 27.4254 17.9982 27.5813 18.0386 27.7373C18.1368 28.0896 18.4545 28.7365 18.7201 29.1234C19.2053 29.8165 19.7078 30.3421 21.7639 32.3C22.3357 32.8429 23.2482 33.7324 23.8027 34.2811C24.3514 34.824 24.825 35.2745 24.8538 35.2745C24.9 35.2745 26.1302 33.8999 26.7713 33.1259C26.9273 32.9411 27.0832 32.7909 27.1237 32.7909C27.1872 32.7909 27.2854 32.8949 27.8745 33.5649C28.3308 34.0905 29.7747 35.7019 29.8497 35.7654C29.9595 35.8636 30.3811 36.3949 30.4446 36.522C30.5255 36.6779 30.537 36.6606 29.1855 38.2489C28.5964 38.942 27.9784 39.6813 27.811 39.8892C27.6377 40.0971 27.4817 40.2819 27.4586 40.2992C27.4413 40.3166 27.1872 40.6111 26.9042 40.9519C26.6154 41.2984 26.2689 41.7201 26.1245 41.8875C25.9801 42.055 25.6971 42.3958 25.4949 42.6499C25.0618 43.1813 24.9289 43.3026 24.8019 43.3026C24.7499 43.2968 24.4091 42.9445 24.0452 42.5171Z" fill="white"/>
<mask id="path-4-outside-1_127_426" maskUnits="userSpaceOnUse" x="8.06934" y="4.94434" width="34" height="41" fill="black">
<rect fill="white" x="8.06934" y="4.94434" width="34" height="41"/>
<path d="M24.0452 42.5171C23.6814 42.0839 23.202 41.5237 22.9883 41.2638C22.7688 41.0039 22.532 40.7209 22.4512 40.6342C22.1913 40.3397 21.4173 39.404 20.9091 38.7803C20.6319 38.4395 20.3373 38.0872 20.2564 37.9948C20.1409 37.8677 18.4602 35.7307 18.0213 35.159C17.6401 34.6622 16.7449 33.4494 15.2952 31.4626C14.9718 31.0178 14.3826 30.2439 13.6434 29.2967C13.3719 28.9502 12.933 28.3784 12.6615 28.0261C12.3958 27.6795 11.7028 26.7843 11.1252 26.045C10.0798 24.7109 9.94697 24.4914 10.1491 24.3759C10.1953 24.3528 10.357 24.1737 10.513 23.9831C10.8018 23.6193 11.183 23.163 11.6277 22.6547C12.0666 22.1523 13.5914 20.3387 14.4 19.3626C15.4107 18.1382 15.8381 17.63 16.3868 17.0004C16.9586 16.342 16.9932 16.2958 17.5188 15.6662C17.7556 15.3832 18.004 15.0829 18.0733 15.002C18.1426 14.9212 18.5988 14.3783 19.084 13.7949C20.1467 12.5243 20.1294 12.5416 21.5906 10.809C22.9017 9.25531 23.1905 8.90877 24.0626 7.83451C24.4091 7.41289 24.7383 7.0317 24.8019 6.98549C24.952 6.88153 25.0329 6.94506 25.4949 7.52263C26.1129 8.28501 26.9677 9.31884 27.7359 10.2314C28.504 11.1382 29.1393 11.9063 30.3696 13.4195C30.7796 13.922 31.1319 14.3494 31.1493 14.3667C31.1666 14.3841 31.4496 14.7248 31.7673 15.1233C32.0907 15.5219 32.3852 15.8857 32.4314 15.9319C32.4777 15.9781 32.7722 16.342 33.0956 16.7405C33.4191 17.139 33.7136 17.5029 33.7598 17.5491C33.8003 17.5953 33.9966 17.8263 34.193 18.0631C34.5684 18.5252 35.4001 19.507 36.1163 20.3445C36.3531 20.6217 36.6939 21.026 36.8671 21.2397C37.0404 21.4534 37.5775 22.0772 38.0511 22.6316C39.2871 24.064 39.6972 24.5665 39.6972 24.6531C39.6972 24.7109 39.0792 25.5137 38.9463 25.6292C38.8713 25.6927 37.4909 27.3157 36.7632 28.1936C35.9372 29.187 35.325 29.9147 34.9034 30.3941C34.759 30.5558 34.528 30.8272 34.3836 31.0005C33.8465 31.6474 33.8349 31.6532 33.6848 31.6127C33.6097 31.5954 33.4711 31.4741 33.3729 31.3528C33.1534 31.0756 32.547 30.371 32.1946 29.9898C31.8077 29.5739 30.8663 28.4939 30.7738 28.361C30.7045 28.2571 30.7276 28.2109 31.0222 27.847C31.3687 27.4254 31.5651 27.2002 32.0445 26.6688C32.7664 25.8775 32.8242 25.8025 32.8242 25.6523C32.8242 25.4617 32.6163 24.6069 32.4661 24.1564C31.8366 22.3198 30.4735 20.2752 28.0593 17.5722C27.3893 16.8214 25.8934 14.9096 25.1715 13.8874C25.0444 13.7083 24.9 13.5581 24.8481 13.5581C24.7672 13.5581 24.5477 13.7949 24.334 14.1126C24.2878 14.1819 23.9759 14.5978 23.641 15.0367C23.1038 15.7471 21.735 17.6415 20.9957 18.6984C19.7366 20.4831 18.801 22.1061 18.3794 23.215C18.2812 23.4807 18.183 23.7348 18.1599 23.781C18.131 23.8272 18.079 24.012 18.0386 24.1853C18.004 24.3585 17.9462 24.5434 17.9231 24.5953C17.8942 24.6473 17.8422 24.9881 17.8018 25.3577C17.7441 25.8949 17.7441 26.149 17.8018 26.6803C17.8422 27.0384 17.8942 27.3619 17.9173 27.3907C17.9462 27.4254 17.9982 27.5813 18.0386 27.7373C18.1368 28.0896 18.4545 28.7365 18.7201 29.1234C19.2053 29.8165 19.7078 30.3421 21.7639 32.3C22.3357 32.8429 23.2482 33.7324 23.8027 34.2811C24.3514 34.824 24.825 35.2745 24.8538 35.2745C24.9 35.2745 26.1302 33.8999 26.7713 33.1259C26.9273 32.9411 27.0832 32.7909 27.1237 32.7909C27.1872 32.7909 27.2854 32.8949 27.8745 33.5649C28.3308 34.0905 29.7747 35.7019 29.8497 35.7654C29.9595 35.8636 30.3811 36.3949 30.4446 36.522C30.5255 36.6779 30.537 36.6606 29.1855 38.2489C28.5964 38.942 27.9784 39.6813 27.811 39.8892C27.6377 40.0971 27.4817 40.2819 27.4586 40.2992C27.4413 40.3166 27.1872 40.6111 26.9042 40.9519C26.6154 41.2984 26.2689 41.7201 26.1245 41.8875C25.9801 42.055 25.6971 42.3958 25.4949 42.6499C25.0618 43.1813 24.9289 43.3026 24.8019 43.3026C24.7499 43.2968 24.4091 42.9445 24.0452 42.5171Z"/>
</mask>
<path d="M24.0452 42.5171L22.5138 43.8035L22.5224 43.8136L24.0452 42.5171ZM22.9883 41.2638L24.5332 39.9936L24.5248 39.9834L24.5164 39.9734L22.9883 41.2638ZM22.4512 40.6342L20.9515 41.9575L20.97 41.9784L20.9891 41.9989L22.4512 40.6342ZM20.9091 38.7803L19.3577 40.0424L19.3586 40.0436L20.9091 38.7803ZM20.2564 37.9948L21.7616 36.6778L21.7491 36.6635L21.7363 36.6494L20.2564 37.9948ZM18.0213 35.159L16.4347 36.3766L16.4348 36.3768L18.0213 35.159ZM15.2952 31.4626L13.6777 32.6389L13.6795 32.6414L15.2952 31.4626ZM13.6434 29.2967L15.22 28.0662L15.2178 28.0634L13.6434 29.2967ZM12.6615 28.0261L11.0743 29.2429L11.0772 29.2467L12.6615 28.0261ZM11.1252 26.045L12.7012 24.8137L12.6995 24.8115L11.1252 26.045ZM10.1491 24.3759L9.25469 22.587L9.20504 22.6118L9.15684 22.6394L10.1491 24.3759ZM10.513 23.9831L12.0609 25.2496L12.0703 25.2381L12.0796 25.2264L10.513 23.9831ZM11.6277 22.6547L13.1328 23.9718L13.1339 23.9705L11.6277 22.6547ZM14.4 19.3626L15.9401 20.6385L15.9424 20.6358L14.4 19.3626ZM16.3868 17.0004L17.8945 18.3145L17.8968 18.3118L16.3868 17.0004ZM17.5188 15.6662L15.9849 14.3828L15.9835 14.3845L17.5188 15.6662ZM19.084 13.7949L17.5498 12.5118L17.5463 12.5161L19.084 13.7949ZM21.5906 10.809L20.0621 9.5191L20.0617 9.51958L21.5906 10.809ZM24.0626 7.83451L22.5175 6.56455L22.5098 6.57395L24.0626 7.83451ZM24.8019 6.98549L23.6634 5.34111L23.6443 5.35434L23.6255 5.36802L24.8019 6.98549ZM25.4949 7.52263L23.9332 8.77204L23.9413 8.78204L25.4949 7.52263ZM27.7359 10.2314L26.2058 11.5194L26.2098 11.5241L27.7359 10.2314ZM30.3696 13.4195L28.8177 14.6812L28.8201 14.6841L30.3696 13.4195ZM31.7673 15.1233L30.2033 16.37L30.2088 16.3768L30.2143 16.3837L31.7673 15.1233ZM33.7598 17.5491L35.265 16.2321L35.2211 16.182L35.1741 16.1349L33.7598 17.5491ZM34.193 18.0631L35.7452 16.8019L35.7389 16.7942L35.7325 16.7865L34.193 18.0631ZM36.1163 20.3445L37.637 19.0455L37.6363 19.0446L36.1163 20.3445ZM38.0511 22.6316L36.5304 23.9306L36.5369 23.9382L38.0511 22.6316ZM38.9463 25.6292L40.2382 27.156L40.2485 27.1472L40.2587 27.1384L38.9463 25.6292ZM36.7632 28.1936L38.3011 29.4722L38.3029 29.4699L36.7632 28.1936ZM34.9034 30.3941L36.3953 31.7261L36.4003 31.7205L36.4052 31.7149L34.9034 30.3941ZM34.3836 31.0005L32.8472 29.7201L32.8449 29.7228L34.3836 31.0005ZM33.6848 31.6127L34.2047 29.6815L34.1697 29.6721L34.1345 29.6639L33.6848 31.6127ZM33.3729 31.3528L31.8048 32.5942L31.8115 32.6028L31.8184 32.6112L33.3729 31.3528ZM32.1946 29.9898L33.6634 28.6323L33.6588 28.6273L32.1946 29.9898ZM30.7738 28.361L29.1097 29.4704L29.1207 29.4869L29.132 29.5032L30.7738 28.361ZM31.0222 27.847L29.4771 26.5771L29.4724 26.5828L29.4677 26.5886L31.0222 27.847ZM32.0445 26.6688L30.567 25.3207L30.5595 25.3291L32.0445 26.6688ZM32.4661 24.1564L34.3635 23.5239L34.3608 23.5159L34.358 23.5079L32.4661 24.1564ZM28.0593 17.5722L26.567 18.9038L26.5677 18.9045L28.0593 17.5722ZM25.1715 13.8874L26.8052 12.7336L26.8025 12.7299L25.1715 13.8874ZM24.334 14.1126L22.6746 12.9962L22.6699 13.0032L24.334 14.1126ZM23.641 15.0367L22.051 13.8233L22.0456 13.8305L23.641 15.0367ZM20.9957 18.6984L22.63 19.8514L22.6346 19.8448L20.9957 18.6984ZM18.3794 23.215L16.5099 22.5042L16.5066 22.5129L16.5034 22.5217L18.3794 23.215ZM18.1599 23.781L19.8559 24.841L19.9063 24.7604L19.9488 24.6754L18.1599 23.781ZM18.0386 24.1853L16.0909 23.7308L16.0837 23.7618L16.0774 23.793L18.0386 24.1853ZM17.9231 24.5953L19.6714 25.5666L19.7146 25.4889L19.7507 25.4076L17.9231 24.5953ZM17.8018 25.3577L15.8137 25.1403L15.8133 25.1439L17.8018 25.3577ZM17.8018 26.6803L15.8135 26.8965L15.8144 26.9047L17.8018 26.6803ZM17.9173 27.3907L16.3556 28.6401L16.3681 28.6558L16.3809 28.6711L17.9173 27.3907ZM18.0386 27.7373L16.1026 28.2392L16.1072 28.2567L16.112 28.2742L18.0386 27.7373ZM18.7201 29.1234L17.0713 30.2554L17.0765 30.2629L17.0817 30.2704L18.7201 29.1234ZM21.7639 32.3L20.3847 33.7484L20.3868 33.7504L21.7639 32.3ZM23.8027 34.2811L22.3959 35.7027L22.396 35.7027L23.8027 34.2811ZM26.7713 33.1259L25.2428 31.8362L25.2369 31.8431L25.2311 31.8501L26.7713 33.1259ZM27.8745 33.5649L29.3848 32.2537L29.3764 32.2442L27.8745 33.5649ZM29.8497 35.7654L31.1833 34.2749L31.1627 34.2565L31.1416 34.2386L29.8497 35.7654ZM30.4446 36.522L28.6558 37.4164L28.6624 37.4296L28.6691 37.4426L30.4446 36.522ZM29.1855 38.2489L27.6624 36.9528L27.6617 36.9536L29.1855 38.2489ZM27.811 39.8892L29.3474 41.1696L29.358 41.1568L29.3685 41.1438L27.811 39.8892ZM27.4586 40.2992L26.2586 38.6992L26.1449 38.7845L26.0444 38.885L27.4586 40.2992ZM26.9042 40.9519L28.4406 42.2323L28.4428 42.2297L26.9042 40.9519ZM25.4949 42.6499L27.0451 43.9136L27.0527 43.9044L27.0601 43.895L25.4949 42.6499ZM24.8019 43.3026L24.581 45.2903L24.6911 45.3026H24.8019V43.3026ZM25.5767 41.2307C25.1867 40.7664 24.7408 40.246 24.5332 39.9936L21.4435 42.534C21.6633 42.8013 22.1761 43.4014 22.5138 43.8035L25.5767 41.2307ZM24.5164 39.9734C24.3325 39.7556 24.0392 39.4045 23.9133 39.2696L20.9891 41.9989C20.9813 41.9906 20.9899 41.9996 21.0257 42.041C21.0565 42.0766 21.0957 42.1225 21.1425 42.1776C21.2378 42.2901 21.3456 42.4183 21.4603 42.5541L24.5164 39.9734ZM23.9509 39.311C23.7218 39.0514 22.9735 38.1477 22.4596 37.5169L19.3586 40.0436C19.8611 40.6603 20.6608 41.628 20.9515 41.9575L23.9509 39.311ZM22.4605 37.5181C22.1815 37.1751 21.8677 36.7991 21.7616 36.6778L18.7513 39.3118C18.8069 39.3753 19.0823 39.7039 19.3577 40.0424L22.4605 37.5181ZM21.7363 36.6494C21.7415 36.6551 21.3638 36.1823 20.8315 35.5063C20.3414 34.884 19.8187 34.2159 19.6077 33.9411L16.4348 36.3768C16.8434 36.909 18.5898 39.1346 18.7766 39.3401L21.7363 36.6494ZM19.6079 33.9413C19.2446 33.4679 18.365 32.2766 16.9108 30.2837L13.6795 32.6414C15.1248 34.6221 16.0356 35.8566 16.4347 36.3766L19.6079 33.9413ZM16.9127 30.2862C16.5686 29.8132 15.9626 29.0176 15.22 28.0662L12.0667 30.5272C12.8027 31.4702 13.3749 32.2225 13.6777 32.6389L16.9127 30.2862ZM15.2178 28.0634C14.9529 27.7252 14.5224 27.1644 14.2458 26.8054L11.0772 29.2467C11.3435 29.5923 11.7909 30.1751 12.0689 30.53L15.2178 28.0634ZM14.2487 26.8092C13.9783 26.4564 13.2813 25.5562 12.7012 24.8137L9.54915 27.2763C10.1243 28.0125 10.8134 28.9026 11.0743 29.2429L14.2487 26.8092ZM12.6995 24.8115C12.439 24.4791 12.2479 24.232 12.1076 24.0435C12.0381 23.9501 11.9868 23.8788 11.9493 23.8245C11.9309 23.7978 11.9173 23.7775 11.9078 23.7626C11.8981 23.7477 11.894 23.7408 11.894 23.7408C11.8941 23.741 11.8957 23.7437 11.8984 23.7486C11.9011 23.7535 11.9053 23.7613 11.9106 23.7719C11.9206 23.7918 11.9382 23.8284 11.9579 23.8791C11.9912 23.9649 12.0674 24.1832 12.0693 24.4853C12.0715 24.8318 11.9744 25.2196 11.7322 25.5678C11.5148 25.8805 11.2609 26.0441 11.1414 26.1124L9.15684 22.6394C8.98677 22.7366 8.69286 22.9322 8.4481 23.2842C8.17858 23.6718 8.06685 24.1062 8.06938 24.5103C8.07336 25.1471 8.36618 25.6325 8.44465 25.7661C8.66744 26.1456 9.06433 26.6576 9.5509 27.2786L12.6995 24.8115ZM11.0435 26.1647C11.2528 26.0601 11.3986 25.9404 11.4375 25.9086C11.5003 25.8572 11.5515 25.8098 11.5849 25.7779C11.6529 25.713 11.7148 25.6475 11.7623 25.5958C11.8608 25.4887 11.9659 25.3657 12.0609 25.2496L8.96507 22.7167C8.90411 22.7912 8.85038 22.853 8.81745 22.8888C8.79928 22.9086 8.8024 22.9041 8.8222 22.8852C8.83152 22.8763 8.8612 22.8482 8.90577 22.8118C8.92865 22.7931 8.96558 22.7638 9.01379 22.7302C9.05719 22.6998 9.14082 22.644 9.25469 22.587L11.0435 26.1647ZM12.0796 25.2264C12.3442 24.8931 12.7041 24.4618 13.1328 23.9718L10.1225 21.3377C9.66185 21.8642 9.25937 22.3455 8.9464 22.7398L12.0796 25.2264ZM13.1339 23.9705C13.5918 23.4464 15.1313 21.6149 15.9401 20.6385L12.8598 18.0868C12.0515 19.0625 10.5415 20.8581 10.1214 21.339L13.1339 23.9705ZM15.9424 20.6358C16.95 19.4152 17.3638 18.9234 17.8945 18.3145L14.8791 15.6863C14.3124 16.3365 13.8714 16.8612 12.8576 18.0894L15.9424 20.6358ZM17.8968 18.3118C18.4823 17.6376 18.5277 17.5786 19.0541 16.948L15.9835 14.3845C15.4588 15.013 15.4348 15.0464 14.8767 15.689L17.8968 18.3118ZM19.0527 16.9497C19.3095 16.6428 19.5318 16.3736 19.5918 16.3036L16.5547 13.7005C16.4761 13.7922 16.2017 14.1237 15.9849 14.3828L19.0527 16.9497ZM19.5918 16.3036C19.6722 16.2098 20.1377 15.6558 20.6217 15.0738L17.5463 12.5161C17.06 13.1008 16.6129 13.6326 16.5547 13.7005L19.5918 16.3036ZM20.6181 15.0781C21.6807 13.8076 21.6611 13.8276 23.1195 12.0983L20.0617 9.51958C18.5976 11.2556 18.6127 11.241 17.5498 12.5118L20.6181 15.0781ZM23.1191 12.0988C24.4343 10.5403 24.732 10.1831 25.6153 9.09506L22.5098 6.57395C21.6489 7.63447 21.3691 7.97034 20.0621 9.5191L23.1191 12.0988ZM25.6077 9.10444C25.7729 8.90338 25.9298 8.71717 26.0483 8.5807C26.1086 8.51124 26.151 8.46394 26.1757 8.43728C26.1887 8.4232 26.1876 8.42492 26.1762 8.43622C26.1705 8.44192 26.1545 8.45768 26.1311 8.47895C26.1145 8.49397 26.0587 8.54442 25.9782 8.60297L23.6255 5.36802C23.4176 5.51919 23.2427 5.71747 23.2409 5.71943C23.1751 5.79042 23.1016 5.87342 23.0284 5.95774C22.8798 6.12882 22.6988 6.34402 22.5175 6.56458L25.6077 9.10444ZM25.9403 8.62988C25.8656 8.6816 25.4764 8.95015 24.8884 8.94424C24.2979 8.93831 23.9146 8.66336 23.8052 8.57846C23.6958 8.49359 23.6511 8.4328 23.7081 8.49788C23.7513 8.5472 23.819 8.62924 23.9332 8.77202L27.0567 6.27323C26.889 6.06362 26.5865 5.67369 26.2577 5.41851C26.0516 5.25854 25.591 4.9511 24.9286 4.94444C24.2688 4.93781 23.8132 5.2374 23.6634 5.34111L25.9403 8.62988ZM23.9413 8.78204C24.5681 9.55531 25.4308 10.5987 26.2058 11.5194L29.2659 8.94342C28.5046 8.03895 27.6578 7.0147 27.0486 6.26321L23.9413 8.78204ZM26.2098 11.5241C26.966 12.4167 27.592 13.1735 28.8177 14.6812L31.9214 12.1579C30.6867 10.6392 30.0421 9.85961 29.2619 8.93863L26.2098 11.5241ZM28.8201 14.6841C29.0267 14.9372 29.2192 15.172 29.3628 15.3465C29.4344 15.4334 29.4952 15.5069 29.54 15.5608C29.562 15.5873 29.5825 15.6118 29.5993 15.6317C29.6073 15.6412 29.6178 15.6536 29.6287 15.6662C29.6339 15.6722 29.6428 15.6825 29.6536 15.6946C29.6555 15.6967 29.6899 15.7358 29.735 15.7809L32.5635 12.9525C32.5906 12.9797 32.6109 13.0016 32.6183 13.0096C32.628 13.0201 32.6355 13.0285 32.6397 13.0332C32.6481 13.0427 32.6541 13.0495 32.6556 13.0513C32.6593 13.0555 32.66 13.0564 32.6559 13.0516C32.6485 13.0429 32.6354 13.0272 32.6156 13.0033C32.5766 12.9565 32.5204 12.8885 32.4505 12.8036C32.3112 12.6345 32.1225 12.4043 31.9191 12.155L28.8201 14.6841ZM29.735 15.7809C29.6982 15.7441 29.6712 15.714 29.6681 15.7106C29.6593 15.7008 29.6529 15.6935 29.6505 15.6908C29.6454 15.685 29.6432 15.6823 29.6455 15.6851C29.6496 15.6899 29.6587 15.7006 29.6737 15.7186C29.703 15.7537 29.7461 15.8057 29.7999 15.8712C29.9073 16.002 30.0513 16.1792 30.2033 16.37L33.3312 13.8767C33.1656 13.6689 33.0093 13.4765 32.8914 13.333C32.8325 13.2613 32.7818 13.2 32.7432 13.1538C32.7243 13.1312 32.7059 13.1094 32.69 13.0906C32.6823 13.0817 32.6719 13.0695 32.6606 13.0566C32.6551 13.0503 32.6461 13.0401 32.6352 13.028C32.63 13.0223 32.6014 12.9904 32.5635 12.9525L29.735 15.7809ZM30.2143 16.3837C30.3743 16.5808 30.5322 16.7755 30.6551 16.9258C30.7163 17.0007 30.7731 17.0697 30.8194 17.1251C30.8423 17.1524 30.8669 17.1816 30.8905 17.2089C30.9007 17.2207 30.9539 17.2828 31.0172 17.3461L33.8457 14.5177C33.8975 14.5695 33.9314 14.6101 33.9154 14.5916C33.9127 14.5886 33.9042 14.5786 33.8879 14.5591C33.8559 14.5209 33.8102 14.4654 33.7516 14.3937C33.6348 14.2508 33.4836 14.0644 33.3202 13.863L30.2143 16.3837ZM31.0172 17.3461C30.9654 17.2943 30.9315 17.2537 30.9475 17.2722C30.9502 17.2752 30.9587 17.2852 30.975 17.3047C31.007 17.343 31.0527 17.3984 31.1113 17.4702C31.2281 17.613 31.3793 17.7995 31.5427 18.0008L34.6486 15.4802C34.4886 15.283 34.3307 15.0883 34.2078 14.938C34.1466 14.8632 34.0898 14.7941 34.0435 14.7387C34.0206 14.7114 33.996 14.6822 33.9724 14.655C33.9622 14.6432 33.909 14.5811 33.8457 14.5177L31.0172 17.3461ZM31.5427 18.0008C31.7027 18.198 31.8606 18.3927 31.9834 18.543C32.0447 18.6178 32.1014 18.6869 32.1478 18.7423C32.1706 18.7696 32.1953 18.7988 32.2188 18.826C32.2291 18.8379 32.2823 18.8999 32.3456 18.9633L35.1741 16.1349C35.2259 16.1867 35.2598 16.2273 35.2438 16.2088C35.2411 16.2058 35.2326 16.1958 35.2163 16.1763C35.1843 16.1381 35.1386 16.0826 35.08 16.0109C34.9631 15.868 34.812 15.6816 34.6486 15.4802L31.5427 18.0008ZM32.2547 18.8661C32.2536 18.8649 32.2564 18.8681 32.2649 18.878C32.2725 18.8868 32.2826 18.8986 32.2951 18.9133C32.32 18.9425 32.3525 18.9808 32.3903 19.0255C32.4659 19.115 32.56 19.2271 32.6535 19.3398L35.7325 16.7865C35.5328 16.5456 35.323 16.2984 35.265 16.2321L32.2547 18.8661ZM32.6408 19.3243C33.0347 19.8091 33.8827 20.8099 34.5963 21.6444L37.6363 19.0446C36.9175 18.2041 36.1022 17.2412 35.7452 16.8019L32.6408 19.3243ZM34.5955 21.6435C34.8306 21.9186 35.1574 22.3066 35.3136 22.4993L38.4206 19.9801C38.2303 19.7454 37.8756 19.3249 37.637 19.0455L34.5955 21.6435ZM35.3136 22.4993C35.5084 22.7395 36.0784 23.4014 36.5304 23.9306L39.5719 21.3327C39.0767 20.7529 38.5724 20.1673 38.4206 19.9801L35.3136 22.4993ZM36.5369 23.9382C37.1562 24.6559 37.5503 25.1196 37.787 25.4102C37.909 25.5599 37.9638 25.6328 37.9809 25.6569C37.9919 25.6726 37.9633 25.6342 37.9238 25.5624C37.9042 25.5266 37.862 25.4467 37.8203 25.3359C37.7888 25.2521 37.6972 24.9977 37.6972 24.6531H41.6972C41.6972 24.2977 41.6024 24.0292 41.5643 23.9279C41.516 23.7994 41.4637 23.6984 41.4304 23.6378C41.3638 23.5164 41.2934 23.4134 41.2467 23.3473C41.1483 23.2081 41.0233 23.0496 40.8882 22.8838C40.611 22.5435 40.182 22.0397 39.5653 21.325L36.5369 23.9382ZM37.6972 24.6531C37.6972 24.4467 37.7295 24.2846 37.7502 24.197C37.7729 24.1009 37.7986 24.0245 37.8165 23.9752C37.8516 23.8791 37.8864 23.8076 37.9028 23.775C37.9369 23.7071 37.9655 23.6612 37.97 23.6539C37.9835 23.6321 37.985 23.6314 37.9635 23.6619C37.9254 23.7161 37.8623 23.8014 37.7865 23.8998C37.7119 23.9968 37.6376 24.0902 37.5801 24.1595C37.5508 24.1948 37.533 24.2154 37.5258 24.2234C37.5222 24.2274 37.527 24.2219 37.5382 24.2103C37.5449 24.2033 37.58 24.1669 37.634 24.12L40.2587 27.1384C40.4388 26.9818 40.6091 26.7732 40.6593 26.7126C40.755 26.5972 40.8602 26.4645 40.9566 26.3392C41.052 26.2153 41.1517 26.0818 41.2336 25.9655C41.2721 25.9109 41.3229 25.8371 41.3707 25.7599C41.3924 25.7249 41.4344 25.6557 41.4776 25.5696C41.4985 25.528 41.5369 25.4487 41.5743 25.3461C41.5943 25.2911 41.6972 25.0178 41.6972 24.6531H37.6972ZM37.6545 24.1024C37.5723 24.1719 37.5106 24.2362 37.5034 24.2436C37.4814 24.2662 37.4621 24.2868 37.4488 24.3012C37.4214 24.3309 37.3924 24.3632 37.3657 24.3933C37.3109 24.4549 37.2415 24.5344 37.1638 24.6241C37.0073 24.805 36.8009 25.046 36.5764 25.3098C36.1277 25.8369 35.5947 26.4692 35.2234 26.9172L38.3029 29.4699C38.6593 29.04 39.1803 28.4219 39.6226 27.9022C39.8436 27.6425 40.0418 27.4111 40.1879 27.2423C40.2616 27.1572 40.318 27.0926 40.356 27.05C40.3651 27.0396 40.3724 27.0316 40.3779 27.0255C40.3836 27.0191 40.3861 27.0164 40.3861 27.0164C40.386 27.0165 40.3845 27.0181 40.3819 27.0209C40.3795 27.0235 40.3745 27.0287 40.3677 27.0357C40.3614 27.0421 40.3492 27.0545 40.3329 27.0703C40.3203 27.0825 40.2858 27.1157 40.2382 27.156L37.6545 24.1024ZM35.2253 26.9149C34.3978 27.9102 33.8024 28.6176 33.4016 29.0732L36.4052 31.7149C36.8477 31.2118 37.4767 30.4637 38.3011 29.4722L35.2253 26.9149ZM33.4115 29.062C33.2454 29.2481 32.9979 29.5392 32.8472 29.7201L35.92 32.2809C36.058 32.1153 36.2727 31.8634 36.3953 31.7261L33.4115 29.062ZM32.8449 29.7228C32.7071 29.8888 32.6207 29.9922 32.5592 30.0629C32.4843 30.1491 32.5065 30.1162 32.5764 30.0554C32.6475 29.9935 32.9556 29.733 33.4615 29.6509C33.7069 29.6111 33.9115 29.6278 34.0433 29.6483C34.1509 29.6651 34.2353 29.6897 34.2047 29.6815L33.1648 33.544C33.1717 33.5458 33.2894 33.5791 33.4284 33.6008C33.5917 33.6262 33.8261 33.6441 34.1021 33.5993C34.6692 33.5073 35.0418 33.2124 35.2017 33.0733C35.4475 32.8595 35.7208 32.5208 35.9223 32.2782L32.8449 29.7228ZM34.1345 29.6639C34.2995 29.702 34.4249 29.7543 34.4996 29.7892C34.5787 29.8261 34.6394 29.8616 34.6792 29.8865C34.7568 29.9351 34.8073 29.9763 34.8294 29.995C34.8726 30.0316 34.9007 30.0615 34.9274 30.0944L31.8184 32.6112C31.9432 32.7654 32.0897 32.9167 32.2456 33.0485C32.3239 33.1148 32.4294 33.1973 32.5571 33.2772C32.6576 33.3401 32.8999 33.4842 33.235 33.5615L34.1345 29.6639ZM34.941 30.1114C34.6833 29.7859 34.0422 29.0422 33.6634 28.6323L30.7259 31.3473C31.0517 31.6998 31.6235 32.3653 31.8048 32.5942L34.941 30.1114ZM33.6588 28.6273C33.4884 28.4443 33.1739 28.0905 32.8811 27.7548C32.737 27.5896 32.6049 27.4363 32.5053 27.319C32.4551 27.2598 32.417 27.2143 32.3915 27.1832C32.3476 27.1297 32.3742 27.1593 32.4157 27.2189L29.132 29.5032C29.2591 29.6858 29.6229 30.1045 29.8664 30.3838C30.1642 30.7252 30.5139 31.1194 30.7305 31.3522L33.6588 28.6273ZM32.4379 27.2516C32.4666 27.2947 32.6726 27.5938 32.7275 28.048C32.7867 28.5371 32.6418 28.9077 32.5614 29.0736C32.4928 29.2152 32.4275 29.2957 32.4539 29.2601C32.4692 29.2396 32.5022 29.1974 32.5767 29.1054L29.4677 26.5886C29.3887 26.6862 29.121 27.0006 28.9617 27.3294C28.8474 27.5653 28.6914 27.9897 28.7564 28.5281C28.8173 29.0316 29.0464 29.3754 29.1097 29.4704L32.4379 27.2516ZM32.5673 29.117C32.8881 28.7266 33.0628 28.5258 33.5295 28.0085L30.5595 25.3291C30.0674 25.8745 29.8494 26.1242 29.4771 26.5771L32.5673 29.117ZM33.5219 28.0168C33.8537 27.6531 34.122 27.359 34.2919 27.1375C34.3816 27.0206 34.5365 26.8081 34.6531 26.5251C34.7986 26.172 34.8242 25.8617 34.8242 25.6523H30.8242C30.8242 25.6077 30.8261 25.5068 30.8474 25.3784C30.8698 25.2436 30.9072 25.1167 30.9547 25.0013C30.9993 24.893 31.0452 24.8138 31.0733 24.7689C31.0877 24.746 31.0994 24.729 31.1066 24.7188C31.1138 24.7085 31.1181 24.7029 31.1183 24.7027C31.1184 24.7025 31.1158 24.706 31.1094 24.7139C31.103 24.7217 31.0939 24.7327 31.0815 24.7474C31.0561 24.7774 31.0215 24.8172 30.9742 24.8707C30.8781 24.9791 30.7483 25.1221 30.567 25.3208L33.5219 28.0168ZM34.8242 25.6523C34.8242 25.3862 34.7711 25.1163 34.7536 25.0251C34.7241 24.8709 34.6859 24.6999 34.6459 24.5336C34.5677 24.2088 34.4631 23.8227 34.3635 23.5239L30.5687 24.7889C30.6193 24.9406 30.6937 25.2072 30.757 25.47C30.7877 25.5976 30.811 25.7041 30.8251 25.7779C30.8323 25.8153 30.8346 25.8314 30.8345 25.8304C30.8343 25.8295 30.8324 25.8161 30.8303 25.7935C30.8286 25.7749 30.8242 25.7234 30.8242 25.6523H34.8242ZM34.358 23.5079C33.5971 21.2879 32.0186 19.0027 29.551 16.2399L26.5677 18.9045C28.9284 21.5477 30.076 23.3516 30.5742 24.8049L34.358 23.5079ZM29.5516 16.2406C28.9442 15.5599 27.4953 13.7108 26.8052 12.7336L23.5378 15.0411C24.2916 16.1084 25.8345 18.0829 26.567 18.9038L29.5516 16.2406ZM26.8025 12.7299C26.6917 12.5737 26.5583 12.4076 26.413 12.2587C26.3445 12.1886 26.2339 12.0814 26.0914 11.9761C26.021 11.924 25.9025 11.8422 25.7457 11.766C25.6189 11.7044 25.292 11.5581 24.8481 11.5581V15.5581C24.4171 15.5581 24.1061 15.4165 23.9977 15.3639C23.8592 15.2966 23.7615 15.228 23.7139 15.1928C23.617 15.1212 23.5602 15.0627 23.5503 15.0525C23.5219 15.0234 23.5242 15.0219 23.5405 15.0448L26.8025 12.7299ZM24.8481 11.5581C24.3908 11.5581 24.0532 11.7119 23.9154 11.7809C23.7489 11.8644 23.6219 11.9551 23.5437 12.0153C23.3858 12.1369 23.2593 12.2647 23.1741 12.3566C22.9951 12.5497 22.8235 12.7749 22.6746 12.9962L25.9935 15.229C26.0231 15.1849 26.0506 15.1473 26.0732 15.1181C26.0969 15.0875 26.1091 15.0743 26.1076 15.0759C26.1064 15.0772 26.0975 15.0868 26.0809 15.1025C26.0656 15.1169 26.0327 15.1472 25.9837 15.1849C25.9407 15.218 25.8459 15.2877 25.7077 15.3569C25.5981 15.4118 25.2851 15.5581 24.8481 15.5581V11.5581ZM22.6699 13.0032C22.6899 12.9732 22.6927 12.971 22.6434 13.0379C22.607 13.0873 22.5569 13.1546 22.4958 13.236C22.374 13.3984 22.2157 13.6076 22.0511 13.8234L25.2309 16.25C25.5395 15.8457 25.9063 15.3598 25.9981 15.222L22.6699 13.0032ZM22.0456 13.8305C21.4889 14.5669 20.1049 16.4826 19.3568 17.5521L22.6346 19.8448C23.3651 18.8004 24.7188 16.9273 25.2363 16.2429L22.0456 13.8305ZM19.3615 17.5455C18.0688 19.3778 17.0203 21.1618 16.5099 22.5042L20.2488 23.9258C20.5816 23.0504 21.4045 21.5884 22.63 19.8514L19.3615 17.5455ZM16.5034 22.5217C16.4571 22.6468 16.4118 22.7669 16.3765 22.8579C16.3586 22.904 16.3453 22.9376 16.3369 22.9584C16.3325 22.9691 16.3316 22.9713 16.3332 22.9675C16.3341 22.9655 16.3371 22.9585 16.3417 22.9481C16.3454 22.9399 16.3559 22.9169 16.371 22.8866L19.9488 24.6754C20.0347 24.5036 20.1812 24.1089 20.2554 23.9083L16.5034 22.5217ZM16.4639 22.721C16.3332 22.9301 16.2644 23.1293 16.253 23.1609C16.2249 23.2388 16.2019 23.3131 16.1849 23.3711C16.1499 23.4899 16.1174 23.6175 16.0909 23.7308L19.9863 24.6397C20.0003 24.5798 20.0139 24.5283 20.0223 24.4998C20.0269 24.4842 20.0248 24.4928 20.0159 24.5176C20.0114 24.5301 20.0002 24.5605 19.9824 24.6015C19.9732 24.6227 19.9595 24.653 19.9413 24.6893C19.9239 24.7238 19.8956 24.7774 19.8559 24.841L16.4639 22.721ZM16.0774 23.793C16.0769 23.796 16.0759 23.8008 16.0744 23.8072C16.0729 23.8136 16.0712 23.821 16.0691 23.8291C16.065 23.8457 16.0605 23.8622 16.0563 23.8765C16.0543 23.8834 16.0526 23.8889 16.0514 23.8927C16.0502 23.8967 16.0499 23.8976 16.0505 23.8956C16.0509 23.8945 16.0517 23.8922 16.053 23.8886C16.0542 23.8851 16.0562 23.8796 16.0589 23.8724C16.0615 23.8653 16.0655 23.8547 16.0709 23.8413C16.0736 23.8345 16.0769 23.8263 16.0809 23.8169C16.0848 23.8076 16.0897 23.7961 16.0955 23.7831L19.7507 25.4076C19.8573 25.1678 19.9505 24.8241 19.9998 24.5775L16.0774 23.793ZM16.1748 23.6241C16.0505 23.8477 15.9958 24.0517 15.9873 24.0815C15.9661 24.1561 15.951 24.223 15.9413 24.2688C15.9213 24.3632 15.9045 24.4613 15.891 24.5471C15.8633 24.7236 15.8363 24.9334 15.8137 25.1403L19.79 25.5752C19.7987 25.4955 19.8079 25.4183 19.8171 25.3477C19.8263 25.2764 19.8351 25.2156 19.8426 25.1677C19.8463 25.144 19.8494 25.1258 19.8517 25.1127C19.8542 25.0989 19.855 25.0954 19.854 25.1C19.8534 25.1026 19.8519 25.1098 19.8493 25.1207C19.8468 25.131 19.8422 25.1497 19.8352 25.1743C19.8287 25.1969 19.8164 25.2386 19.7972 25.2914C19.7873 25.3185 19.7734 25.3549 19.7549 25.3974C19.7371 25.4386 19.7097 25.4977 19.6714 25.5666L16.1748 23.6241ZM15.8133 25.1439C15.7403 25.8224 15.7401 26.2207 15.8135 26.8965L19.7901 26.4642C19.748 26.0773 19.7478 25.9673 19.7903 25.5716L15.8133 25.1439ZM15.8144 26.9047C15.8374 27.108 15.8646 27.3111 15.8918 27.4789C15.9048 27.5593 15.9215 27.6543 15.9415 27.7457C15.9508 27.7882 15.9675 27.861 15.9926 27.9441C16.0048 27.9845 16.0275 28.0562 16.0625 28.1415C16.0822 28.1895 16.1704 28.4087 16.3556 28.6401L19.4791 26.1414C19.5835 26.2719 19.6492 26.3882 19.6832 26.4524C19.7205 26.523 19.7466 26.5828 19.7628 26.6224C19.7945 26.6996 19.8137 26.761 19.8222 26.7892C19.8398 26.8476 19.8484 26.8877 19.8489 26.8901C19.8514 26.9016 19.8482 26.8879 19.8403 26.8391C19.8256 26.7484 19.8067 26.6107 19.7892 26.456L15.8144 26.9047ZM16.3809 28.6711C16.3153 28.5924 16.2684 28.5234 16.2393 28.478C16.2088 28.4305 16.1857 28.3898 16.1699 28.3605C16.1392 28.3038 16.1192 28.2592 16.1096 28.2372C16.0989 28.2127 16.0919 28.1948 16.0886 28.1861C16.085 28.1767 16.0832 28.1713 16.0829 28.1705C16.0826 28.1695 16.085 28.1765 16.0893 28.1914C16.0935 28.2055 16.0982 28.2221 16.1026 28.2392L19.9746 27.2354C19.9443 27.1186 19.9066 26.9891 19.8644 26.8665C19.8439 26.8072 19.8143 26.7257 19.7759 26.6379C19.7648 26.6123 19.6611 26.3591 19.4538 26.1104L16.3809 28.6711ZM16.112 28.2742C16.2831 28.888 16.7135 29.7342 17.0713 30.2554L20.3689 27.9914C20.3067 27.9008 20.2084 27.7323 20.1115 27.5352C20.0657 27.442 20.0275 27.3571 19.9992 27.2882C19.9682 27.2127 19.961 27.1854 19.9652 27.2004L16.112 28.2742ZM17.0817 30.2704C17.7032 31.1583 18.3642 31.8244 20.3847 33.7484L23.1431 30.8516C21.0513 28.8598 20.7073 28.4747 20.3586 27.9765L17.0817 30.2704ZM20.3868 33.7504C20.9456 34.281 21.8478 35.1603 22.3959 35.7027L25.2095 32.8595C24.6487 32.3045 23.7258 31.4049 23.141 30.8497L20.3868 33.7504ZM22.396 35.7027C22.6765 35.9804 22.9432 36.2397 23.148 36.4335C23.2483 36.5285 23.3451 36.6186 23.4255 36.6901C23.4624 36.7229 23.5171 36.7709 23.5763 36.818C23.6017 36.8383 23.662 36.8858 23.74 36.9374C23.7762 36.9613 23.8565 37.0132 23.9643 37.0664C23.987 37.0776 24.3516 37.2745 24.8538 37.2745V33.2745C25.0116 33.2745 25.1432 33.2932 25.2377 33.3117C25.3342 33.3306 25.4147 33.3538 25.4751 33.3736C25.5923 33.412 25.6826 33.4538 25.7353 33.4799C25.8397 33.5314 25.9156 33.5806 25.9466 33.6011C26.0142 33.6459 26.0608 33.6832 26.0695 33.6901C26.0951 33.7105 26.1037 33.719 26.0836 33.701C26.05 33.6711 25.9887 33.6147 25.8984 33.5292C25.7219 33.3621 25.4775 33.1247 25.2094 32.8594L22.396 35.7027ZM24.8538 37.2745C25.3591 37.2745 25.7208 37.0781 25.7699 37.0529C25.8896 36.9914 25.9776 36.9309 26.0182 36.9021C26.1043 36.8411 26.1687 36.7852 26.194 36.763C26.2535 36.7109 26.3046 36.6607 26.3335 36.632C26.3987 36.5672 26.4725 36.4897 26.5434 36.4138C26.69 36.2571 26.8794 36.0486 27.0809 35.8229C27.483 35.373 27.9689 34.8154 28.3115 34.4018L25.2311 31.8501C24.9327 32.2104 24.483 32.7271 24.0981 33.1579C23.9062 33.3727 23.7393 33.5561 23.6221 33.6814C23.5612 33.7465 23.5263 33.7824 23.5129 33.7958C23.5025 33.8061 23.5218 33.7862 23.5578 33.7546C23.5715 33.7427 23.6262 33.6947 23.705 33.6389C23.7418 33.6127 23.8267 33.5542 23.9438 33.4941C24.0035 33.4634 24.1011 33.417 24.2273 33.3753C24.3416 33.3375 24.5648 33.2745 24.8538 33.2745V37.2745ZM28.2999 34.4157C28.3438 34.3636 28.3724 34.3352 28.3718 34.3358C28.3698 34.3377 28.3618 34.3454 28.348 34.3573C28.3356 34.3681 28.3086 34.3911 28.2694 34.4203C28.2375 34.4442 28.1562 34.5033 28.0391 34.5653C27.9792 34.597 27.881 34.645 27.7529 34.6882C27.6353 34.7277 27.4123 34.7909 27.1237 34.7909V30.7909C26.6058 30.7909 26.2348 30.9946 26.1675 31.0302C26.0335 31.1011 25.9322 31.1735 25.8776 31.2143C25.7631 31.2997 25.6693 31.3857 25.6099 31.4424C25.4822 31.5643 25.3548 31.7034 25.2428 31.8362L28.2999 34.4157ZM27.1237 34.7909C26.8369 34.7909 26.5836 34.7278 26.3776 34.6416C26.1914 34.5636 26.0609 34.4739 25.996 34.4259C25.9284 34.3759 25.8844 34.3355 25.8717 34.3236C25.8566 34.3096 25.8526 34.3049 25.8643 34.317C25.9295 34.3844 26.0642 34.5349 26.3725 34.8856L29.3764 32.2442C29.0956 31.9249 28.8867 31.6884 28.7396 31.5363C28.6753 31.4698 28.5427 31.3342 28.3739 31.2094C28.1996 31.0806 27.7608 30.7909 27.1237 30.7909V34.7909ZM26.3642 34.876C26.6039 35.1521 27.0885 35.697 27.5162 36.1738C27.7315 36.4138 27.9368 36.6415 28.0943 36.8146C28.1725 36.9006 28.2424 36.9769 28.2971 37.0358C28.3239 37.0646 28.3519 37.0945 28.3778 37.1214C28.3904 37.1345 28.4079 37.1526 28.4274 37.172C28.4339 37.1785 28.4878 37.2329 28.5579 37.2922L31.1416 34.2386C31.2325 34.3155 31.2998 34.3893 31.2626 34.3505C31.2589 34.3466 31.2478 34.3349 31.227 34.3126C31.1866 34.2691 31.1277 34.2049 31.0529 34.1227C30.9043 33.9594 30.706 33.7395 30.4939 33.503C30.0669 33.0269 29.6013 32.5032 29.3848 32.2538L26.3642 34.876ZM28.5162 37.2559C28.479 37.2226 28.4538 37.1971 28.4455 37.1887C28.4399 37.183 28.4359 37.1787 28.4336 37.1763C28.4312 37.1738 28.4299 37.1723 28.4298 37.1722C28.4296 37.172 28.4321 37.1748 28.4376 37.1809C28.4428 37.1869 28.4497 37.1949 28.4583 37.205C28.4944 37.2473 28.5431 37.3067 28.5946 37.3719C28.6464 37.4376 28.6911 37.4965 28.721 37.5378C28.7363 37.5589 28.7411 37.5663 28.7384 37.5622C28.7369 37.56 28.7295 37.5487 28.7184 37.5304C28.7095 37.5157 28.6849 37.4747 28.6558 37.4164L32.2335 35.6276C32.1326 35.4258 31.9956 35.2398 31.9596 35.1901C31.8892 35.093 31.8097 34.9891 31.7345 34.8938C31.6386 34.7724 31.3936 34.463 31.1833 34.2749L28.5162 37.2559ZM28.6691 37.4426C28.6846 37.4724 28.6672 37.4396 28.6524 37.4083C28.6332 37.3681 28.5939 37.2817 28.558 37.1654C28.5202 37.0428 28.4884 36.8944 28.478 36.7252C28.4677 36.5562 28.4808 36.3985 28.5079 36.2571C28.5588 35.9924 28.6541 35.8113 28.6889 35.7486C28.7268 35.6802 28.7528 35.6472 28.7366 35.6694C28.7028 35.7157 28.62 35.8205 28.4304 36.0469C28.2491 36.2634 28.0031 36.5524 27.6624 36.9528L30.7087 39.545C31.3459 38.7962 31.7545 38.3196 31.9678 38.0273C32.032 37.9392 32.3331 37.5484 32.4362 37.0114C32.5055 36.6503 32.4771 36.3001 32.3803 35.9863C32.339 35.8524 32.2925 35.7489 32.2649 35.6909C32.2509 35.6614 32.2387 35.6374 32.2318 35.6239C32.2283 35.617 32.2252 35.611 32.2234 35.6076C32.2204 35.6018 32.2215 35.604 32.2201 35.6014L28.6691 37.4426ZM27.6617 36.9536C27.0734 37.6457 26.4396 38.4035 26.2534 38.6345L29.3685 41.1438C29.5173 40.959 30.1194 40.2383 30.7094 39.5442L27.6617 36.9536ZM26.2745 38.6088C26.1888 38.7117 26.113 38.802 26.0579 38.8665C26.0445 38.8822 26.0334 38.8951 26.0244 38.9054C26.0151 38.9161 26.01 38.922 26.0081 38.924C26.0073 38.9249 26.0084 38.9237 26.0111 38.9208C26.0134 38.9182 26.0196 38.9116 26.0285 38.9022C26.0361 38.8943 26.0542 38.8755 26.0792 38.8515C26.092 38.8393 26.1117 38.8206 26.1368 38.7985C26.1496 38.7872 26.1658 38.7731 26.1849 38.7574C26.2036 38.7419 26.2285 38.7218 26.2586 38.6992L28.6586 41.8993C28.7599 41.8233 28.8322 41.7535 28.8498 41.7366C28.8797 41.7079 28.9037 41.6832 28.9181 41.6682C28.9474 41.6375 28.9731 41.6091 28.99 41.5902C29.0256 41.5504 29.064 41.5058 29.0991 41.4648C29.171 41.3806 29.2599 41.2746 29.3474 41.1696L26.2745 38.6088ZM26.0444 38.885C25.9437 38.9857 25.6127 39.3766 25.3656 39.6741L28.4428 42.2297C28.5777 42.0672 28.7061 41.9154 28.8022 41.8028C28.8503 41.7464 28.889 41.7015 28.9154 41.6711C28.9289 41.6555 28.9371 41.6461 28.9409 41.6417C28.9431 41.6393 28.9414 41.6413 28.9372 41.6459C28.9351 41.6482 28.93 41.6539 28.9229 41.6615C28.9193 41.6654 28.8996 41.6867 28.8729 41.7135L26.0444 38.885ZM25.3677 39.6715C25.0571 40.0443 24.7399 40.4305 24.6097 40.5817L27.6393 43.1934C27.7978 43.0096 28.1737 42.5525 28.4406 42.2323L25.3677 39.6715ZM24.6097 40.5817C24.4471 40.7703 24.1473 41.1314 23.9297 41.4049L27.0601 43.895C27.2469 43.6602 27.5131 43.3398 27.6393 43.1934L24.6097 40.5817ZM23.9448 41.3862C23.8425 41.5117 23.7698 41.5983 23.7168 41.6588C23.6604 41.7232 23.6485 41.7326 23.6661 41.7161C23.6771 41.7058 23.7823 41.6058 23.9657 41.5085C24.0655 41.4555 24.1923 41.4012 24.344 41.3615C24.4986 41.321 24.6531 41.3026 24.8019 41.3026V45.3026C25.6468 45.3026 26.1922 44.8307 26.4011 44.6349C26.617 44.4326 26.8388 44.1667 27.0451 43.9136L23.9448 41.3862ZM25.0227 41.3148C25.2524 41.3403 25.4276 41.4006 25.5219 41.4373C25.6248 41.4774 25.7047 41.5186 25.7551 41.5464C25.8535 41.6007 25.9236 41.651 25.9534 41.6728C25.9888 41.6989 26.0142 41.7197 26.0267 41.7302C26.0404 41.7416 26.0492 41.7494 26.0521 41.7521C26.0569 41.7564 26.0346 41.736 25.9801 41.6795C25.8774 41.5731 25.7293 41.4099 25.5681 41.2206L22.5224 43.8136C22.7251 44.0517 22.9292 44.2783 23.101 44.4563C23.1836 44.5421 23.279 44.6376 23.3736 44.7229C23.4173 44.7623 23.4926 44.8285 23.5853 44.8965C23.6301 44.9294 23.7132 44.9882 23.8225 45.0486C23.882 45.0814 24.1712 45.2448 24.581 45.2903L25.0227 41.3148Z" fill="black" fill-opacity="0.9" mask="url(#path-4-outside-1_127_426)"/>
</svg>
