<svg width="1977" height="441" viewBox="0 0 1977 441" fill="none" xmlns="http://www.w3.org/2000/svg">
<path d="M169.518 431.473C165.105 426.219 159.29 419.423 156.698 416.271C154.036 413.118 151.164 409.686 150.183 408.635C147.031 405.062 137.643 393.713 131.479 386.148C128.116 382.014 124.543 377.741 123.563 376.62C122.161 375.079 101.776 349.159 96.4515 342.224C91.828 336.199 80.9696 321.488 63.386 297.389C59.4629 291.995 52.3174 282.607 43.3504 271.119C40.0579 266.915 34.7338 259.98 31.4412 255.707C28.2187 251.503 19.8122 240.645 12.8068 231.678C0.127009 215.496 -1.48423 212.833 0.967664 211.432C1.5281 211.152 3.48963 208.981 5.38109 206.669C8.8838 202.255 13.5074 196.721 18.9015 190.556C24.2257 184.462 42.72 162.465 52.5276 150.625C64.787 135.774 69.971 129.609 76.6262 121.973C83.5616 113.987 83.9819 113.427 90.3568 105.791C93.229 102.358 96.2414 98.7152 97.082 97.7344C97.9227 96.7537 103.457 90.1686 109.342 83.0931C122.231 67.6812 122.021 67.8913 139.745 46.8751C155.647 28.0305 159.15 23.8272 169.728 10.7972C173.931 5.68321 177.925 1.05965 178.695 0.499212C180.517 -0.761763 181.497 0.00882412 187.102 7.01424C194.597 16.2614 204.965 28.8011 214.283 39.8697C223.6 50.8682 231.306 60.1854 246.227 78.5396C251.201 84.6343 255.475 89.8183 255.685 90.0285C255.895 90.2386 259.328 94.3718 263.181 99.2056C267.104 104.039 270.676 108.453 271.237 109.013C271.797 109.574 275.37 113.987 279.293 118.821C283.216 123.654 286.789 128.068 287.349 128.628C287.84 129.189 290.221 131.991 292.603 134.863C297.157 140.468 307.245 152.377 315.931 162.535C318.804 165.897 322.937 170.801 325.038 173.393C327.14 175.985 333.655 183.551 339.399 190.276C354.391 207.649 359.365 213.744 359.365 214.795C359.365 215.496 351.869 225.233 350.258 226.634C349.347 227.405 332.604 247.09 323.777 257.738C313.76 269.788 306.334 278.614 301.22 284.429C299.469 286.39 296.666 289.683 294.915 291.785C288.4 299.631 288.26 299.701 286.439 299.21C285.528 299 283.846 297.529 282.656 296.058C279.994 292.695 272.638 284.149 268.365 279.525C263.671 274.481 252.252 261.381 251.131 259.77C250.291 258.509 250.571 257.948 254.144 253.535C258.347 248.421 260.729 245.689 266.543 239.244C275.3 229.647 276 228.736 276 226.914C276 224.603 273.478 214.235 271.657 208.77C264.021 186.493 247.488 161.694 218.206 128.909C210.079 119.802 191.935 96.6136 183.179 84.214C181.637 82.0423 179.886 80.2209 179.256 80.2209C178.275 80.2209 175.613 83.0931 173.021 86.9461C172.46 87.7867 168.677 92.8306 164.614 98.1548C158.099 106.771 141.496 129.749 132.529 142.569C117.258 164.216 105.909 183.901 100.795 197.352C99.604 200.574 98.413 203.656 98.1328 204.217C97.7826 204.777 97.1521 207.019 96.6617 209.121C96.2414 211.222 95.5408 213.464 95.2606 214.094C94.9103 214.725 94.2798 218.858 93.7895 223.342C93.0889 229.857 93.0889 232.939 93.7895 239.384C94.2798 243.727 94.9103 247.65 95.1905 248.001C95.5408 248.421 96.1713 250.312 96.6617 252.204C97.8526 256.477 101.706 264.323 104.928 269.017C110.813 277.423 116.907 283.798 141.847 307.547C148.782 314.132 159.851 324.92 166.576 331.575C173.231 338.16 178.975 343.625 179.326 343.625C179.886 343.625 194.808 326.952 202.584 317.565C204.475 315.323 206.367 313.501 206.857 313.501C207.628 313.501 208.818 314.762 215.964 322.889C221.498 329.264 239.012 348.809 239.923 349.579C241.254 350.77 246.367 357.215 247.138 358.756C248.119 360.648 248.259 360.438 231.866 379.703C224.721 388.109 217.225 397.076 215.193 399.598C213.092 402.12 211.2 404.362 210.92 404.572C210.71 404.782 207.628 408.355 204.195 412.488C200.692 416.691 196.489 421.805 194.738 423.837C192.986 425.868 189.554 430.001 187.102 433.084C181.848 439.529 180.236 441 178.695 441C178.065 440.93 173.931 436.657 169.518 431.473Z" fill="#3A3F42" fill-opacity="0.5"/>
<path d="M378.38 336L472.62 70H503.4L597.64 336H563.82L541.02 271.02H435.38L412.96 336H378.38ZM445.26 241.76H530.76L496.56 143.34C495.673 140.807 494.66 137.893 493.52 134.6C492.507 131.18 491.493 127.887 490.48 124.72C489.467 121.427 488.707 118.64 488.2 116.36C487.567 118.64 486.743 121.427 485.73 124.72C484.843 127.887 483.83 131.18 482.69 134.6C481.677 137.893 480.727 140.807 479.84 143.34L445.26 241.76ZM646.728 336V70H751.608C772.888 70 789.608 73.6733 801.768 81.02C814.055 88.3667 822.732 97.8667 827.798 109.52C832.992 121.047 835.588 133.08 835.588 145.62C835.588 156.133 833.498 166.52 829.318 176.78C825.265 186.913 818.678 195.843 809.558 203.57C800.438 211.297 788.468 216.68 773.648 219.72L830.648 336H793.408L738.688 222H679.788V336H646.728ZM679.788 191.22H752.368C764.782 191.22 774.598 189.003 781.818 184.57C789.165 180.137 794.358 174.5 797.398 167.66C800.565 160.82 802.148 153.727 802.148 146.38C802.148 139.793 800.692 133.017 797.778 126.05C794.992 118.957 789.988 113.003 782.768 108.19C775.548 103.25 765.415 100.78 752.368 100.78H679.788V191.22ZM949.021 336V101.54H874.921V70H1056.18V101.54H982.081V336H949.021ZM1112.08 336V70H1145.14V336H1112.08ZM1297.22 340.56C1281.76 340.56 1267.77 338.027 1255.23 332.96C1242.69 327.767 1232.05 320.737 1223.31 311.87C1214.69 302.877 1208.42 292.68 1204.5 281.28L1235.66 269.88C1240.98 281.66 1249.02 291.223 1259.79 298.57C1270.68 305.79 1283.41 309.4 1297.98 309.4C1313.94 309.4 1326.67 305.6 1336.17 298C1345.67 290.273 1350.42 279.127 1350.42 264.56C1350.42 254.3 1347.57 245.687 1341.87 238.72C1336.17 231.753 1328.76 225.927 1319.64 221.24C1310.52 216.427 1300.76 212.12 1290.38 208.32C1281.13 204.9 1271.88 201.1 1262.64 196.92C1253.39 192.74 1244.97 187.8 1237.37 182.1C1229.89 176.273 1223.88 169.243 1219.32 161.01C1214.76 152.65 1212.48 142.707 1212.48 131.18C1212.48 119.273 1215.71 108.38 1222.17 98.5C1228.63 88.4933 1237.94 80.5133 1250.1 74.56C1262.26 68.48 1276.95 65.44 1294.18 65.44C1308.24 65.44 1320.59 67.53 1331.23 71.71C1341.99 75.7633 1350.8 81.4 1357.64 88.62C1364.6 95.7133 1369.42 103.82 1372.08 112.94L1341.68 123.2C1338.51 115.727 1332.68 109.393 1324.2 104.2C1315.84 98.88 1305.07 96.22 1291.9 96.22C1277.84 96.22 1266.75 99.3233 1258.65 105.53C1250.67 111.737 1246.68 120.287 1246.68 131.18C1246.68 139.413 1249.34 146.317 1254.66 151.89C1260.1 157.337 1267.2 162.087 1275.94 166.14C1284.68 170.193 1294.05 174.12 1304.06 177.92C1313.43 181.467 1322.8 185.52 1332.18 190.08C1341.68 194.513 1350.35 199.96 1358.21 206.42C1366.19 212.88 1372.58 220.797 1377.4 230.17C1382.21 239.417 1384.62 250.627 1384.62 263.8C1384.62 280.14 1380.82 294.01 1373.22 305.41C1365.62 316.81 1355.23 325.55 1342.06 331.63C1328.88 337.583 1313.94 340.56 1297.22 340.56ZM1417.81 336L1512.05 70H1542.83L1637.07 336H1603.25L1580.45 271.02H1474.81L1452.39 336H1417.81ZM1484.69 241.76H1570.19L1535.99 143.34C1535.11 140.807 1534.09 137.893 1532.95 134.6C1531.94 131.18 1530.93 127.887 1529.91 124.72C1528.9 121.427 1528.14 118.64 1527.63 116.36C1527 118.64 1526.18 121.427 1525.16 124.72C1524.28 127.887 1523.26 131.18 1522.12 134.6C1521.11 137.893 1520.16 140.807 1519.27 143.34L1484.69 241.76ZM1686.16 336V70H1719.6L1837.4 259.24C1839.3 262.407 1841.14 265.573 1842.91 268.74C1844.69 271.907 1846.52 275.327 1848.42 279C1848.3 275.707 1848.11 272.413 1847.85 269.12C1847.73 265.827 1847.66 262.66 1847.66 259.62V70H1880.72V336H1848.8L1729.1 146C1727.46 143.087 1725.68 140.047 1723.78 136.88C1722.01 133.713 1720.24 130.547 1718.46 127.38C1718.72 130.167 1718.91 133.207 1719.03 136.5C1719.16 139.793 1719.22 142.96 1719.22 146V336H1686.16Z" fill="#3A3F42" fill-opacity="0.5"/>
</svg>
