<svg width="2012" height="445" viewBox="0 0 2012 445" fill="none" xmlns="http://www.w3.org/2000/svg">
<path d="M174.697 433.473C170.201 428.219 164.277 421.423 161.637 418.271C158.925 415.118 155.999 411.686 155 410.635C151.788 407.062 142.225 395.713 135.944 388.148C132.519 384.014 128.879 379.741 127.88 378.62C126.452 377.079 105.684 351.159 100.26 344.224C95.55 338.199 84.488 323.488 66.5746 299.389C62.578 293.995 55.2985 284.607 46.1634 273.119C42.8091 268.915 37.3852 261.98 34.0309 257.707C30.7479 253.503 22.1838 242.645 15.047 233.678C2.12939 217.496 0.487933 214.833 2.98581 213.432C3.55675 213.152 5.55507 210.981 7.482 208.669C11.0504 204.255 15.7607 198.721 21.256 192.556C26.68 186.462 45.5211 164.465 55.5126 152.625C68.002 137.774 73.2832 131.609 80.0632 123.973C87.1286 115.987 87.5568 115.427 94.0513 107.791C96.9774 104.358 100.046 100.715 100.903 99.7344C101.759 98.7537 107.397 92.1686 113.392 85.0931C126.524 69.6812 126.31 69.8913 144.366 48.8751C160.566 30.0305 164.135 25.8272 174.911 12.7972C179.193 7.68321 183.261 3.05965 184.046 2.49921C185.902 1.23824 186.901 2.00882 192.61 9.01424C200.247 18.2614 210.809 30.8011 220.301 41.8697C229.793 52.8682 237.644 62.1854 252.845 80.5396C257.912 86.6343 262.266 91.8183 262.48 92.0285C262.694 92.2386 266.191 96.3718 270.116 101.206C274.113 106.039 277.752 110.453 278.323 111.013C278.894 111.574 282.534 115.987 286.531 120.821C290.527 125.654 294.167 130.068 294.738 130.628C295.238 131.189 297.664 133.991 300.091 136.863C304.729 142.468 315.006 154.377 323.856 164.535C326.782 167.897 330.993 172.801 333.134 175.393C335.275 177.985 341.912 185.551 347.764 192.276C363.037 209.649 368.104 215.744 368.104 216.795C368.104 217.496 360.468 227.233 358.826 228.634C357.899 229.405 340.842 249.09 331.849 259.738C321.644 271.788 314.079 280.614 308.869 286.429C307.085 288.39 304.23 291.683 302.446 293.785C295.808 301.631 295.666 301.701 293.81 301.21C292.882 301 291.17 299.529 289.956 298.058C287.244 294.695 279.751 286.149 275.397 281.525C270.616 276.481 258.983 263.381 257.841 261.77C256.984 260.509 257.27 259.948 260.91 255.535C265.192 250.421 267.618 247.689 273.542 241.244C282.463 231.647 283.176 230.736 283.176 228.914C283.176 226.603 280.607 216.235 278.752 210.77C270.972 188.493 254.13 163.694 224.298 130.909C216.019 121.802 197.535 98.6136 188.614 86.214C187.044 84.0423 185.26 82.2209 184.617 82.2209C183.618 82.2209 180.906 85.0931 178.265 88.9461C177.695 89.7867 173.841 94.8306 169.701 100.155C163.064 108.771 146.15 131.749 137.015 144.569C121.457 166.216 109.895 185.901 104.685 199.352C103.472 202.574 102.259 205.656 101.973 206.217C101.616 206.777 100.974 209.019 100.474 211.121C100.046 213.222 99.3325 215.464 99.0471 216.094C98.6902 216.725 98.0479 220.858 97.5483 225.342C96.8346 231.857 96.8346 234.939 97.5483 241.384C98.0479 245.727 98.6902 249.65 98.9757 250.001C99.3325 250.421 99.9748 252.312 100.474 254.204C101.688 258.477 105.613 266.323 108.896 271.017C114.891 279.423 121.1 285.798 146.507 309.547C153.572 316.132 164.848 326.92 171.7 333.575C178.48 340.16 184.332 345.625 184.689 345.625C185.26 345.625 200.461 328.952 208.383 319.565C210.31 317.323 212.237 315.501 212.736 315.501C213.521 315.501 214.734 316.762 222.014 324.889C227.652 331.264 245.494 350.809 246.422 351.579C247.778 352.77 252.988 359.215 253.773 360.756C254.772 362.648 254.915 362.438 238.215 381.703C230.935 390.109 223.299 399.076 221.229 401.598C219.088 404.12 217.161 406.362 216.876 406.572C216.661 406.782 213.521 410.355 210.024 414.488C206.456 418.691 202.174 423.805 200.39 425.837C198.605 427.868 195.108 432.001 192.61 435.084C187.258 441.529 185.616 443 184.046 443C183.404 442.93 179.193 438.657 174.697 433.473Z" fill="black" fill-opacity="0.9"/>
<mask id="path-2-outside-1_124_1089" maskUnits="userSpaceOnUse" x="0" y="0" width="371" height="445" fill="black">
<rect fill="white" width="371" height="445"/>
<path d="M174.697 433.473C170.201 428.219 164.277 421.423 161.637 418.271C158.925 415.118 155.999 411.686 155 410.635C151.788 407.062 142.225 395.713 135.944 388.148C132.519 384.014 128.879 379.741 127.88 378.62C126.452 377.079 105.684 351.159 100.26 344.224C95.55 338.199 84.488 323.488 66.5746 299.389C62.578 293.995 55.2985 284.607 46.1634 273.119C42.8091 268.915 37.3852 261.98 34.0309 257.707C30.7479 253.503 22.1838 242.645 15.047 233.678C2.12939 217.496 0.487933 214.833 2.98581 213.432C3.55675 213.152 5.55507 210.981 7.482 208.669C11.0504 204.255 15.7607 198.721 21.256 192.556C26.68 186.462 45.5211 164.465 55.5126 152.625C68.002 137.774 73.2832 131.609 80.0632 123.973C87.1286 115.987 87.5568 115.427 94.0513 107.791C96.9774 104.358 100.046 100.715 100.903 99.7344C101.759 98.7537 107.397 92.1686 113.392 85.0931C126.524 69.6812 126.31 69.8913 144.366 48.8751C160.566 30.0305 164.135 25.8272 174.911 12.7972C179.193 7.68321 183.261 3.05965 184.046 2.49921C185.902 1.23824 186.901 2.00882 192.61 9.01424C200.247 18.2614 210.809 30.8011 220.301 41.8697C229.793 52.8682 237.644 62.1854 252.845 80.5396C257.912 86.6343 262.266 91.8183 262.48 92.0285C262.694 92.2386 266.191 96.3718 270.116 101.206C274.113 106.039 277.752 110.453 278.323 111.013C278.894 111.574 282.534 115.987 286.531 120.821C290.527 125.654 294.167 130.068 294.738 130.628C295.238 131.189 297.664 133.991 300.091 136.863C304.729 142.468 315.006 154.377 323.856 164.535C326.782 167.897 330.993 172.801 333.134 175.393C335.275 177.985 341.912 185.551 347.764 192.276C363.037 209.649 368.104 215.744 368.104 216.795C368.104 217.496 360.468 227.233 358.826 228.634C357.899 229.405 340.842 249.09 331.849 259.738C321.644 271.788 314.079 280.614 308.869 286.429C307.085 288.39 304.23 291.683 302.446 293.785C295.808 301.631 295.666 301.701 293.81 301.21C292.882 301 291.17 299.529 289.956 298.058C287.244 294.695 279.751 286.149 275.397 281.525C270.616 276.481 258.983 263.381 257.841 261.77C256.984 260.509 257.27 259.948 260.91 255.535C265.192 250.421 267.618 247.689 273.542 241.244C282.463 231.647 283.176 230.736 283.176 228.914C283.176 226.603 280.607 216.235 278.752 210.77C270.972 188.493 254.13 163.694 224.298 130.909C216.019 121.802 197.535 98.6136 188.614 86.214C187.044 84.0423 185.26 82.2209 184.617 82.2209C183.618 82.2209 180.906 85.0931 178.265 88.9461C177.695 89.7867 173.841 94.8306 169.701 100.155C163.064 108.771 146.15 131.749 137.015 144.569C121.457 166.216 109.895 185.901 104.685 199.352C103.472 202.574 102.259 205.656 101.973 206.217C101.616 206.777 100.974 209.019 100.474 211.121C100.046 213.222 99.3325 215.464 99.0471 216.094C98.6902 216.725 98.0479 220.858 97.5483 225.342C96.8346 231.857 96.8346 234.939 97.5483 241.384C98.0479 245.727 98.6902 249.65 98.9757 250.001C99.3325 250.421 99.9748 252.312 100.474 254.204C101.688 258.477 105.613 266.323 108.896 271.017C114.891 279.423 121.1 285.798 146.507 309.547C153.572 316.132 164.848 326.92 171.7 333.575C178.48 340.16 184.332 345.625 184.689 345.625C185.26 345.625 200.461 328.952 208.383 319.565C210.31 317.323 212.237 315.501 212.736 315.501C213.521 315.501 214.734 316.762 222.014 324.889C227.652 331.264 245.494 350.809 246.422 351.579C247.778 352.77 252.988 359.215 253.773 360.756C254.772 362.648 254.915 362.438 238.215 381.703C230.935 390.109 223.299 399.076 221.229 401.598C219.088 404.12 217.161 406.362 216.876 406.572C216.661 406.782 213.521 410.355 210.024 414.488C206.456 418.691 202.174 423.805 200.39 425.837C198.605 427.868 195.108 432.001 192.61 435.084C187.258 441.529 185.616 443 184.046 443C183.404 442.93 179.193 438.657 174.697 433.473Z"/>
</mask>
<path d="M174.697 433.473L173.177 434.773L173.186 434.783L174.697 433.473ZM161.637 418.271L163.17 416.987L163.161 416.977L163.153 416.967L161.637 418.271ZM155 410.635L153.512 411.972L153.531 411.993L153.55 412.013L155 410.635ZM135.944 388.148L134.404 389.424L134.405 389.425L135.944 388.148ZM127.88 378.62L129.373 377.289L129.36 377.275L129.347 377.261L127.88 378.62ZM100.26 344.224L98.6847 345.455L98.6849 345.456L100.26 344.224ZM66.5746 299.389L64.9677 300.58L64.9695 300.582L66.5746 299.389ZM46.1634 273.119L47.7289 271.874L47.7267 271.871L46.1634 273.119ZM34.0309 257.707L32.4547 258.938L32.4576 258.942L34.0309 257.707ZM15.047 233.678L16.6119 232.433L16.6101 232.43L15.047 233.678ZM2.98581 213.432L2.10463 211.637L2.05531 211.661L2.0074 211.688L2.98581 213.432ZM7.482 208.669L9.0183 209.949L9.02786 209.938L9.03725 209.926L7.482 208.669ZM21.256 192.556L22.749 193.887L22.75 193.886L21.256 192.556ZM55.5126 152.625L57.0411 153.915L57.0433 153.913L55.5126 152.625ZM80.0632 123.973L81.5587 125.301L81.5611 125.298L80.0632 123.973ZM94.0513 107.791L92.5292 106.493L92.5278 106.495L94.0513 107.791ZM113.392 85.0931L111.87 83.796L111.866 83.8002L113.392 85.0931ZM144.366 48.8751L142.849 47.5713L142.849 47.5717L144.366 48.8751ZM174.911 12.7972L173.378 11.5132L173.37 11.5225L174.911 12.7972ZM184.046 2.49921L182.922 0.845024L182.903 0.858011L182.884 0.871437L184.046 2.49921ZM192.61 9.01424L191.06 10.2778L191.068 10.2878L192.61 9.01424ZM220.301 41.8697L218.783 43.1716L218.787 43.1764L220.301 41.8697ZM252.845 80.5396L251.305 81.8153L251.307 81.8182L252.845 80.5396ZM270.116 101.206L268.563 102.466L268.569 102.473L268.575 102.48L270.116 101.206ZM294.738 130.628L296.231 129.298L296.187 129.248L296.139 129.201L294.738 130.628ZM300.091 136.863L301.631 135.588L301.625 135.58L301.618 135.572L300.091 136.863ZM323.856 164.535L325.365 163.222L325.364 163.221L323.856 164.535ZM347.764 192.276L346.256 193.589L346.262 193.597L347.764 192.276ZM358.826 228.634L360.104 230.173L360.115 230.164L360.125 230.155L358.826 228.634ZM331.849 259.738L333.375 261.031L333.377 261.029L331.849 259.738ZM308.869 286.429L310.348 287.775L310.353 287.769L310.358 287.764L308.869 286.429ZM302.446 293.785L300.921 292.49L300.919 292.493L302.446 293.785ZM293.81 301.21L294.321 299.277L294.287 299.268L294.252 299.26L293.81 301.21ZM289.956 298.058L288.4 299.313L288.406 299.322L288.413 299.33L289.956 298.058ZM275.397 281.525L276.853 280.154L276.849 280.149L275.397 281.525ZM257.841 261.77L256.186 262.893L256.197 262.91L256.209 262.926L257.841 261.77ZM260.91 255.535L259.376 254.251L259.371 254.257L259.367 254.263L260.91 255.535ZM273.542 241.244L272.077 239.882L272.069 239.891L273.542 241.244ZM278.752 210.77L280.645 210.127L280.643 210.119L280.64 210.111L278.752 210.77ZM224.298 130.909L222.818 132.254L222.819 132.255L224.298 130.909ZM188.614 86.214L190.237 85.046L190.235 85.0422L188.614 86.214ZM178.265 88.9461L176.616 87.8154L176.611 87.8224L178.265 88.9461ZM169.701 100.155L168.122 98.9272L168.117 98.9343L169.701 100.155ZM137.015 144.569L138.639 145.736L138.644 145.73L137.015 144.569ZM104.685 199.352L102.82 198.629L102.817 198.638L102.813 198.647L104.685 199.352ZM101.973 206.217L103.66 207.291L103.712 207.21L103.755 207.125L101.973 206.217ZM100.474 211.121L98.5286 210.658L98.5211 210.69L98.5147 210.721L100.474 211.121ZM99.0471 216.094L100.788 217.08L100.832 217.001L100.869 216.919L99.0471 216.094ZM97.5483 225.342L95.5606 225.12L95.5602 225.124L97.5483 225.342ZM97.5483 241.384L95.5605 241.604L95.5614 241.613L97.5483 241.384ZM98.9757 250.001L97.4254 251.264L97.438 251.28L97.451 251.295L98.9757 250.001ZM100.474 254.204L98.5407 254.715L98.5454 254.732L98.5505 254.75L100.474 254.204ZM108.896 271.017L107.257 272.163L107.262 272.171L107.267 272.178L108.896 271.017ZM146.507 309.547L145.141 311.008L145.143 311.01L146.507 309.547ZM171.7 333.575L170.306 335.01L170.306 335.01L171.7 333.575ZM208.383 319.565L206.866 318.261L206.86 318.268L206.854 318.275L208.383 319.565ZM222.014 324.889L223.512 323.564L223.504 323.554L222.014 324.889ZM246.422 351.579L247.742 350.077L247.721 350.058L247.7 350.041L246.422 351.579ZM253.773 360.756L251.991 361.664L251.997 361.677L252.004 361.691L253.773 360.756ZM238.215 381.703L236.703 380.393L236.703 380.393L238.215 381.703ZM221.229 401.598L222.754 402.892L222.764 402.88L222.775 402.867L221.229 401.598ZM216.876 406.572L215.69 404.961L215.576 405.045L215.475 405.145L216.876 406.572ZM210.024 414.488L211.549 415.782L211.551 415.78L210.024 414.488ZM192.61 435.084L194.149 436.362L194.157 436.352L194.164 436.343L192.61 435.084ZM184.046 443L183.829 444.988L183.938 445H184.046V443ZM176.217 432.172C171.694 426.887 165.804 420.132 163.17 416.987L160.104 419.555C162.75 422.715 168.708 429.55 173.178 434.773L176.217 432.172ZM163.153 416.967C160.477 413.856 157.494 410.356 156.449 409.257L153.55 412.013C154.504 413.016 157.373 416.381 160.121 419.575L163.153 416.967ZM156.487 409.298C153.307 405.76 143.769 394.443 137.483 386.87L134.405 389.425C140.68 396.984 150.269 408.364 153.512 411.972L156.487 409.298ZM137.484 386.871C134.057 382.736 130.397 378.439 129.373 377.289L126.387 379.951C127.36 381.043 130.981 385.293 134.404 389.424L137.484 386.871ZM129.347 377.261C127.992 375.798 107.291 349.966 101.836 342.992L98.6849 345.456C104.078 352.352 124.913 378.36 126.412 379.979L129.347 377.261ZM101.836 342.992C97.1438 336.99 86.0976 322.301 68.1798 298.196L64.9695 300.582C82.8784 324.675 93.9563 339.408 98.6847 345.455L101.836 342.992ZM68.1816 298.198C64.1641 292.776 56.8673 283.367 47.7289 271.874L44.598 274.363C53.7297 285.848 60.992 295.214 64.9677 300.58L68.1816 298.198ZM47.7267 271.871C44.379 267.676 38.9637 260.752 35.6041 256.472L32.4576 258.942C35.8067 263.208 41.2392 270.155 44.6002 274.366L47.7267 271.871ZM35.6071 256.476C32.3193 252.266 23.7511 241.403 16.6118 232.433L13.4821 234.924C20.6164 243.887 29.1766 254.741 32.4547 258.938L35.6071 256.476ZM16.6101 232.43C10.1144 224.293 6.57886 219.705 4.95197 216.986C4.55463 216.321 4.30507 215.823 4.15812 215.451C4.08588 215.269 4.04501 215.133 4.02274 215.037C4.0118 214.99 4.00603 214.955 4.00304 214.932C4.00005 214.909 4 214.898 4 214.898C4.00022 214.932 3.9815 215.066 3.88908 215.197C3.82336 215.29 3.79475 215.272 3.96423 215.177L2.0074 211.688C1.5524 211.943 1.02867 212.315 0.625073 212.885C0.194767 213.492 -0.00459504 214.191 8.09431e-05 214.924C0.00829911 216.213 0.654722 217.594 1.51922 219.039C3.31799 222.046 7.06202 226.881 13.4839 234.926L16.6101 232.43ZM3.86699 215.228C4.31934 215.006 4.75795 214.605 5.02609 214.354C5.36809 214.033 5.76448 213.629 6.18526 213.179C7.03023 212.277 8.03756 211.126 9.0183 209.949L5.94571 207.388C4.99951 208.523 4.04422 209.614 3.26556 210.445C2.87453 210.863 2.54386 211.198 2.29037 211.436C1.96304 211.743 1.93775 211.719 2.10463 211.637L3.86699 215.228ZM9.03725 209.926C12.5811 205.543 17.2698 200.034 22.749 193.887L19.7631 191.225C14.2516 197.408 9.51971 202.967 5.92676 207.411L9.03725 209.926ZM22.75 193.886C28.1932 187.77 47.0492 165.755 57.0411 153.915L53.9842 151.335C43.993 163.174 25.1668 185.153 19.762 191.227L22.75 193.886ZM57.0433 153.913C69.5295 139.065 74.797 132.917 81.5587 125.301L78.5676 122.645C71.7695 130.302 66.4745 136.483 53.9819 151.338L57.0433 153.913ZM81.5611 125.298C88.6404 117.297 89.0794 116.723 95.5748 109.086L92.5278 106.495C86.0342 114.13 85.6168 114.677 78.5653 122.648L81.5611 125.298ZM95.5734 109.088C98.5197 105.632 101.562 102.02 102.409 101.05L99.3961 98.419C98.5303 99.4105 95.435 103.084 92.5292 106.493L95.5734 109.088ZM102.409 101.05C103.277 100.056 108.924 93.4601 114.918 86.386L111.866 83.8002C105.87 90.8771 100.241 97.4511 99.3961 98.419L102.409 101.05ZM114.914 86.3902C128.046 70.9785 127.829 71.1913 145.883 50.1784L142.849 47.5717C124.79 68.5914 125.002 68.3839 111.87 83.796L114.914 86.3902ZM145.882 50.1789C162.087 31.3295 165.664 27.1156 176.452 14.0718L173.37 11.5225C162.605 24.5389 159.045 28.7315 142.849 47.5713L145.882 50.1789ZM176.445 14.0812C178.577 11.5339 180.653 9.11393 182.288 7.26595C183.107 6.34075 183.807 5.56818 184.345 4.99802C184.614 4.7122 184.834 4.48749 185.001 4.32416C185.194 4.13545 185.247 4.09904 185.208 4.12699L182.884 0.871437C182.495 1.14907 181.95 1.70689 181.435 2.25308C180.856 2.86727 180.124 3.6753 179.292 4.61529C177.627 6.49769 175.527 8.9465 173.378 11.5132L176.445 14.0812ZM185.17 4.1534C185.52 3.91578 185.513 4.00164 185.345 3.99998C185.173 3.99829 185.233 3.9143 185.671 4.24775C186.633 4.98062 188.142 6.69703 191.06 10.2778L194.161 7.75072C191.37 4.32604 189.524 2.15444 188.095 1.06591C187.337 0.488656 186.443 0.0106167 185.384 0.0001719C184.328 -0.0102482 183.5 0.452154 182.922 0.845024L185.17 4.1534ZM191.068 10.2878C198.714 19.5458 209.284 32.095 218.783 43.1716L221.819 40.5677C212.334 29.5072 201.78 16.977 194.153 7.74074L191.068 10.2878ZM218.787 43.1764C228.267 54.1607 236.108 63.4666 251.305 81.8153L254.385 79.2639C239.179 60.9041 231.319 51.5756 221.815 40.563L218.787 43.1764ZM251.307 81.8182C253.842 84.8675 256.199 87.6895 257.95 89.7762C258.825 90.8193 259.55 91.6802 260.07 92.2945C260.533 92.8407 260.939 93.3185 261.079 93.4558L263.881 90.6012C263.913 90.6334 263.695 90.3844 263.122 89.709C262.608 89.1017 261.888 88.2463 261.014 87.2053C259.268 85.1238 256.915 82.3064 254.383 79.261L251.307 81.8182ZM261.079 93.4558C261.049 93.4267 261.223 93.6217 261.688 94.1677C262.103 94.6547 262.679 95.3376 263.372 96.1664C264.758 97.8238 266.608 100.058 268.563 102.466L271.669 99.9448C269.699 97.5194 267.837 95.2702 266.44 93.6C265.742 92.765 265.158 92.073 264.734 91.5749C264.36 91.1358 264.017 90.7354 263.881 90.6012L261.079 93.4558ZM268.575 102.48C270.571 104.895 272.484 107.211 273.968 108.992C275.399 110.71 276.544 112.069 276.922 112.44L279.724 109.586C279.726 109.587 279.705 109.567 279.655 109.512C279.608 109.46 279.547 109.392 279.471 109.307C279.32 109.135 279.123 108.907 278.885 108.627C278.408 108.067 277.78 107.319 277.041 106.432C275.563 104.658 273.657 102.35 271.657 99.9311L268.575 102.48ZM276.922 112.44C276.921 112.439 276.941 112.459 276.992 112.515C277.039 112.566 277.1 112.634 277.176 112.72C277.327 112.891 277.523 113.119 277.762 113.399C278.239 113.959 278.867 114.707 279.606 115.595C281.084 117.369 282.989 119.676 284.989 122.095L288.072 119.546C286.075 117.132 284.163 114.816 282.679 113.034C281.248 111.317 280.103 109.957 279.724 109.586L276.922 112.44ZM284.989 122.095C286.986 124.51 288.898 126.826 290.382 128.607C291.813 130.325 292.958 131.684 293.337 132.056L296.139 129.201C296.14 129.202 296.12 129.182 296.069 129.127C296.022 129.076 295.961 129.008 295.886 128.922C295.734 128.75 295.538 128.522 295.299 128.242C294.822 127.683 294.195 126.934 293.456 126.047C291.978 124.273 290.072 121.965 288.072 119.546L284.989 122.095ZM293.245 131.959C293.727 132.5 296.14 135.286 298.563 138.154L301.618 135.572C299.188 132.696 296.748 129.878 296.231 129.298L293.245 131.959ZM298.55 138.138C303.208 143.765 313.501 155.694 322.348 165.848L325.364 163.221C316.512 153.06 306.251 141.17 301.631 135.588L298.55 138.138ZM322.347 165.847C325.272 169.208 329.468 174.096 331.592 176.667L334.676 174.119C332.518 171.506 328.293 166.586 325.365 163.222L322.347 165.847ZM331.592 176.667C333.755 179.285 340.425 186.889 346.256 193.589L349.273 190.963C343.399 184.213 336.795 176.685 334.676 174.119L331.592 176.667ZM346.262 193.597C353.9 202.285 358.967 208.132 362.123 211.934C363.704 213.839 364.779 215.2 365.451 216.133C365.79 216.603 365.997 216.924 366.111 217.128C366.168 217.231 366.181 217.267 366.176 217.253C366.172 217.244 366.157 217.203 366.142 217.138C366.127 217.076 366.104 216.956 366.104 216.795H370.104C370.104 216.373 369.988 216.022 369.911 215.822C369.824 215.594 369.714 215.375 369.602 215.176C369.38 214.778 369.071 214.315 368.697 213.795C367.941 212.747 366.795 211.301 365.201 209.379C362.004 205.528 356.902 199.641 349.266 190.956L346.262 193.597ZM366.104 216.795C366.104 216.447 366.203 216.203 366.208 216.19C366.23 216.128 366.246 216.1 366.237 216.117C366.221 216.15 366.174 216.233 366.081 216.38C365.901 216.667 365.623 217.073 365.26 217.577C364.541 218.58 363.554 219.882 362.507 221.218C361.461 222.552 360.368 223.903 359.441 225.001C358.467 226.153 357.79 226.889 357.528 227.113L360.125 230.155C360.683 229.679 361.576 228.672 362.496 227.582C363.463 226.438 364.587 225.048 365.655 223.686C366.722 222.325 367.746 220.974 368.51 219.909C368.89 219.381 369.221 218.9 369.464 218.515C369.584 218.325 369.703 218.126 369.799 217.939C369.846 217.846 369.905 217.723 369.957 217.583C369.991 217.492 370.104 217.187 370.104 216.795H366.104ZM357.548 227.096C357.377 227.238 357.166 227.46 357.013 227.622C356.822 227.825 356.577 228.093 356.287 228.413C355.706 229.055 354.921 229.937 353.984 230.999C352.109 233.125 349.605 235.996 346.851 239.172C341.343 245.524 334.825 253.115 330.321 258.448L333.377 261.029C337.866 255.713 344.372 248.137 349.873 241.792C352.624 238.62 355.12 235.759 356.984 233.645C357.917 232.587 358.688 231.721 359.252 231.097C359.535 230.785 359.76 230.54 359.925 230.365C360.129 230.149 360.16 230.126 360.104 230.173L357.548 227.096ZM330.323 258.446C320.116 270.497 312.568 279.303 307.379 285.094L310.358 287.764C315.589 281.925 323.171 273.078 333.375 261.031L330.323 258.446ZM307.389 285.083C305.583 287.069 302.712 290.381 300.921 292.49L303.97 295.079C305.748 292.985 308.586 289.712 310.348 287.775L307.389 285.083ZM300.919 292.493C297.532 296.496 295.975 298.301 295.036 299.103C294.605 299.47 294.544 299.409 294.694 299.385C294.798 299.369 294.846 299.415 294.321 299.277L293.299 303.144C293.702 303.25 294.464 303.472 295.323 303.335C296.23 303.191 296.967 302.714 297.634 302.145C298.889 301.073 300.722 298.919 303.973 295.076L300.919 292.493ZM294.252 299.26C294.332 299.278 294.268 299.276 294.034 299.132C293.827 299.004 293.566 298.815 293.268 298.568C292.672 298.074 292.029 297.428 291.499 296.785L288.413 299.33C289.097 300.159 289.917 300.984 290.712 301.645C291.111 301.976 291.528 302.287 291.94 302.54C292.326 302.777 292.825 303.038 293.368 303.161L294.252 299.26ZM291.513 296.802C288.762 293.392 281.234 284.806 276.853 280.154L273.941 282.896C278.268 287.491 285.726 295.999 288.4 299.313L291.513 296.802ZM276.849 280.149C274.481 277.652 270.395 273.136 266.749 269.032C263.048 264.866 259.961 261.303 259.473 260.613L256.209 262.926C256.862 263.848 260.163 267.641 263.759 271.689C267.41 275.798 271.532 280.354 273.946 282.901L276.849 280.149ZM259.495 260.646C259.327 260.398 259.409 260.452 259.432 260.64C259.46 260.865 259.372 260.943 259.482 260.72C259.773 260.13 260.563 259.099 262.453 256.808L259.367 254.263C257.617 256.384 256.443 257.84 255.896 258.949C255.586 259.576 255.361 260.306 255.462 261.129C255.559 261.914 255.926 262.511 256.186 262.893L259.495 260.646ZM262.443 256.819C266.699 251.736 269.104 249.028 275.014 242.597L272.069 239.891C266.133 246.35 263.684 249.106 259.376 254.251L262.443 256.819ZM275.007 242.606C279.437 237.839 281.92 235.135 283.28 233.395C283.965 232.519 284.461 231.77 284.77 231.034C285.109 230.226 285.176 229.545 285.176 228.914H281.176C281.176 229.194 281.155 229.311 281.081 229.486C280.978 229.733 280.738 230.152 280.129 230.932C278.901 232.502 276.567 235.052 272.077 239.882L275.007 242.606ZM285.176 228.914C285.176 228.114 284.974 226.848 284.709 225.489C284.431 224.066 284.044 222.35 283.602 220.548C282.72 216.953 281.598 212.934 280.645 210.127L276.858 211.413C277.76 214.071 278.851 217.969 279.717 221.501C280.15 223.263 280.521 224.914 280.783 226.256C281.057 227.662 281.176 228.559 281.176 228.914H285.176ZM280.64 210.111C272.725 187.447 255.662 162.406 225.777 129.563L222.819 132.255C252.597 164.982 269.219 189.54 276.863 211.43L280.64 210.111ZM225.778 129.563C217.562 120.526 199.126 97.4004 190.237 85.046L186.99 87.382C195.944 99.8267 214.476 123.077 222.818 132.254L225.778 129.563ZM190.235 85.0422C189.401 83.8897 188.496 82.808 187.686 81.993C187.285 81.5896 186.868 81.2123 186.466 80.9206C186.266 80.7753 186.03 80.6221 185.77 80.4982C185.539 80.3881 185.127 80.2209 184.617 80.2209V84.2209C184.268 84.2209 184.052 84.1105 184.048 84.1086C184.015 84.0928 184.036 84.0989 184.117 84.1582C184.28 84.2759 184.528 84.4897 184.849 84.8131C185.484 85.4517 186.256 86.3666 186.993 87.3858L190.235 85.0422ZM184.617 80.2209C184.053 80.2209 183.581 80.4104 183.283 80.5572C182.957 80.7178 182.648 80.9235 182.369 81.1342C181.81 81.5567 181.209 82.1233 180.603 82.7654C179.381 84.0587 177.979 85.8263 176.616 87.8154L179.915 90.0767C181.193 88.2129 182.466 86.6179 183.511 85.5118C184.038 84.9542 184.467 84.562 184.78 84.3255C184.937 84.2068 185.025 84.158 185.049 84.1464C185.1 84.1211 184.931 84.2209 184.617 84.2209V80.2209ZM176.611 87.8224C176.087 88.5946 172.289 93.5685 168.122 98.9272L171.28 101.382C175.393 96.0928 179.303 90.9789 179.92 90.0698L176.611 87.8224ZM168.117 98.9343C161.46 107.577 144.53 130.576 135.386 143.409L138.644 145.73C147.77 132.922 164.669 109.966 171.286 101.375L168.117 98.9343ZM135.391 143.402C119.799 165.096 108.121 184.943 102.82 198.629L106.55 200.074C111.669 186.859 123.115 167.336 138.639 145.736L135.391 143.402ZM102.813 198.647C102.21 200.25 101.607 201.816 101.121 203.048C100.878 203.665 100.666 204.192 100.498 204.597C100.415 204.799 100.344 204.966 100.288 205.094C100.261 205.158 100.238 205.209 100.22 205.248C100.211 205.268 100.204 205.283 100.199 205.294C100.193 205.305 100.191 205.31 100.191 205.309L103.755 207.125C104.105 206.437 105.368 203.213 106.557 200.056L102.813 198.647ZM100.286 205.143C100.07 205.481 99.9016 205.907 99.7813 206.234C99.644 206.608 99.5017 207.049 99.3615 207.517C99.0801 208.456 98.7849 209.58 98.5286 210.658L102.42 211.583C102.664 210.56 102.939 209.512 103.193 208.665C103.321 208.24 103.437 207.883 103.536 207.614C103.652 207.297 103.697 207.233 103.66 207.291L100.286 205.143ZM98.5147 210.721C98.1017 212.748 97.4246 214.829 97.2251 215.27L100.869 216.919C101.24 216.099 101.991 213.696 102.434 211.52L98.5147 210.721ZM97.3065 215.109C97.138 215.407 97.0367 215.736 96.9795 215.933C96.9093 216.176 96.8421 216.455 96.7778 216.752C96.6488 217.348 96.5129 218.104 96.3763 218.957C96.1024 220.669 95.8129 222.856 95.5606 225.12L99.536 225.563C99.7833 223.344 100.065 221.222 100.326 219.589C100.457 218.77 100.58 218.094 100.687 217.598C100.741 217.348 100.787 217.166 100.822 217.045C100.87 216.878 100.867 216.94 100.788 217.08L97.3065 215.109ZM95.5602 225.124C94.8308 231.783 94.8305 235.012 95.5605 241.604L99.5362 241.164C98.8388 234.866 98.8385 231.93 99.5364 225.559L95.5602 225.124ZM95.5614 241.613C95.8141 243.809 96.1038 245.909 96.369 247.515C96.501 248.315 96.6306 249.016 96.7505 249.553C96.8096 249.818 96.8732 250.074 96.9411 250.295C96.9747 250.405 97.0181 250.534 97.073 250.666C97.1124 250.76 97.2204 251.013 97.4254 251.264L100.526 248.737C100.624 248.857 100.683 248.961 100.709 249.009C100.738 249.064 100.756 249.105 100.763 249.122C100.777 249.155 100.777 249.161 100.765 249.121C100.741 249.043 100.703 248.902 100.655 248.682C100.558 248.249 100.442 247.632 100.316 246.864C100.063 245.336 99.7822 243.302 99.5352 241.156L95.5614 241.613ZM97.451 251.295C97.3366 251.16 97.3463 251.12 97.4625 251.381C97.5511 251.58 97.6607 251.861 97.7846 252.214C98.031 252.915 98.3014 253.808 98.5407 254.715L102.408 253.693C102.148 252.708 101.847 251.71 101.558 250.888C101.415 250.479 101.266 250.089 101.118 249.757C100.998 249.486 100.793 249.051 100.5 248.706L97.451 251.295ZM98.5505 254.75C99.839 259.289 103.88 267.336 107.257 272.163L110.535 269.871C107.346 265.311 103.536 257.666 102.398 253.658L98.5505 254.75ZM107.267 272.178C113.401 280.779 119.77 287.294 145.141 311.008L147.872 308.086C122.429 284.303 116.381 278.068 110.524 269.856L107.267 272.178ZM145.143 311.01C152.195 317.583 163.461 328.361 170.306 335.01L173.093 332.141C166.235 325.479 154.949 314.681 147.87 308.084L145.143 311.01ZM170.306 335.01C173.702 338.309 176.872 341.332 179.241 343.534C180.424 344.634 181.418 345.539 182.147 346.175C182.508 346.49 182.824 346.757 183.074 346.952C183.195 347.047 183.332 347.15 183.469 347.239C183.535 347.282 183.64 347.347 183.767 347.409C183.811 347.43 184.185 347.625 184.689 347.625V343.625C185.17 343.625 185.511 343.809 185.511 343.809C185.595 343.85 185.646 343.883 185.647 343.884C185.656 343.89 185.625 343.87 185.538 343.802C185.374 343.673 185.121 343.461 184.777 343.161C184.096 342.567 183.137 341.694 181.964 340.605C179.624 338.429 176.477 335.427 173.093 332.141L170.306 335.01ZM184.689 347.625C185.193 347.625 185.561 347.431 185.626 347.399C185.759 347.331 185.865 347.261 185.927 347.218C186.055 347.129 186.174 347.031 186.266 346.951C186.459 346.786 186.691 346.567 186.943 346.321C187.455 345.821 188.146 345.113 188.966 344.253C190.61 342.527 192.822 340.137 195.258 337.461C200.129 332.11 205.928 325.575 209.911 320.854L206.854 318.275C202.916 322.942 197.153 329.436 192.3 334.769C189.874 337.434 187.684 339.799 186.07 341.493C185.26 342.343 184.608 343.01 184.149 343.459C183.915 343.687 183.754 343.836 183.658 343.919C183.605 343.964 183.605 343.96 183.642 343.935C183.658 343.924 183.725 343.878 183.826 343.826C183.859 343.81 184.202 343.625 184.689 343.625V347.625ZM209.899 320.868C210.828 319.788 211.742 318.827 212.462 318.152C212.827 317.81 213.109 317.573 213.298 317.435C213.395 317.364 213.428 317.348 213.407 317.359C213.395 317.365 213.342 317.392 213.254 317.421C213.176 317.447 212.991 317.501 212.736 317.501V313.501C212.17 313.501 211.727 313.724 211.562 313.809C211.333 313.928 211.119 314.073 210.935 314.207C210.562 314.481 210.148 314.839 209.727 315.233C208.878 316.029 207.864 317.1 206.866 318.261L209.899 320.868ZM212.736 317.501C212.322 317.501 212.13 317.307 212.319 317.444C212.515 317.586 212.871 317.898 213.515 318.551C214.785 319.84 216.871 322.145 220.524 326.223L223.504 323.554C219.878 319.507 217.717 317.117 216.364 315.744C215.697 315.067 215.148 314.555 214.668 314.207C214.181 313.853 213.542 313.501 212.736 313.501V317.501ZM220.516 326.214C223.347 329.414 229.226 335.905 234.508 341.685C237.15 344.576 239.647 347.295 241.543 349.34C242.49 350.362 243.291 351.22 243.886 351.848C244.42 352.412 244.91 352.923 245.144 353.118L247.7 350.041C247.702 350.043 247.432 349.775 246.79 349.098C246.21 348.485 245.42 347.639 244.476 346.621C242.59 344.585 240.1 341.874 237.461 338.986C232.18 333.207 226.319 326.738 223.512 323.564L220.516 326.214ZM245.102 353.082C245.623 353.54 247.151 355.298 248.753 357.29C249.526 358.251 250.275 359.216 250.875 360.028C251.509 360.887 251.881 361.45 251.991 361.664L255.555 359.849C255.272 359.292 254.698 358.471 254.092 357.652C253.452 356.784 252.667 355.774 251.87 354.783C250.331 352.87 248.576 350.81 247.742 350.077L245.102 353.082ZM252.004 361.691C252.295 362.241 252.102 361.974 252.149 361.734C252.152 361.716 252.132 361.831 251.951 362.152C251.773 362.467 251.484 362.904 251.026 363.521C249.157 366.035 245.093 370.715 236.703 380.393L239.726 383.013C248.037 373.425 252.251 368.578 254.236 365.908C255.184 364.632 255.87 363.548 256.075 362.502C256.336 361.167 255.75 360.217 255.541 359.822L252.004 361.691ZM236.703 380.393C229.424 388.799 221.771 397.784 219.683 400.329L222.775 402.867C224.826 400.368 232.446 391.419 239.726 383.012L236.703 380.393ZM219.704 400.304C218.635 401.564 217.624 402.747 216.848 403.639C216.459 404.086 216.136 404.451 215.897 404.714C215.776 404.846 215.686 404.942 215.625 405.005C215.525 405.107 215.573 405.047 215.69 404.961L218.061 408.182C218.249 408.044 218.42 407.868 218.489 407.798C218.596 407.688 218.72 407.554 218.854 407.407C219.123 407.112 219.469 406.72 219.865 406.265C220.659 405.353 221.682 404.154 222.754 402.892L219.704 400.304ZM215.475 405.145C215.176 405.437 211.958 409.106 208.497 413.196L211.551 415.78C213.293 413.721 214.946 411.802 216.19 410.371C216.812 409.656 217.33 409.065 217.705 408.64C218.118 408.173 218.289 407.987 218.277 407.999L215.475 405.145ZM208.5 413.194C204.909 417.423 200.657 422.502 198.887 424.517L201.892 427.156C203.691 425.109 208.003 419.959 211.549 415.782L208.5 413.194ZM198.887 424.517C197.084 426.57 193.57 430.723 191.057 433.825L194.164 436.343C196.646 433.28 200.127 429.167 201.892 427.156L198.887 424.517ZM191.072 433.806C188.385 437.041 186.718 438.918 185.556 439.987C184.39 441.059 184.064 441 184.046 441V445C185.599 445 186.878 444.205 188.264 442.931C189.653 441.653 191.483 439.572 194.149 436.362L191.072 433.806ZM184.263 441.012C184.47 441.034 184.621 441.087 184.69 441.113C184.767 441.142 184.818 441.169 184.837 441.18C184.874 441.199 184.87 441.201 184.814 441.161C184.707 441.083 184.528 440.94 184.272 440.713C183.767 440.266 183.077 439.6 182.243 438.752C180.583 437.063 178.435 434.73 176.208 432.162L173.186 434.783C175.455 437.399 177.66 439.795 179.39 441.556C180.252 442.433 181.016 443.173 181.621 443.709C181.92 443.973 182.212 444.216 182.475 444.405C182.605 444.499 182.762 444.605 182.932 444.697C183.054 444.763 183.389 444.94 183.829 444.988L184.263 441.012Z" fill="white" mask="url(#path-2-outside-1_124_1089)"/>
<path d="M384.226 338L485.496 72H532.236L633.886 338H580.876L559.786 281.76H458.136L437.426 338H384.226ZM474.096 236.73H543.446L516.846 165.48C515.96 163.327 515.01 160.92 513.996 158.26C512.983 155.6 512.033 152.94 511.146 150.28C510.26 147.493 509.5 145.087 508.866 143.06C508.233 145.087 507.473 147.493 506.586 150.28C505.7 152.94 504.75 155.6 503.736 158.26C502.723 160.92 501.773 163.327 500.886 165.48L474.096 236.73ZM673.038 338V72H794.068C816.235 72 833.715 75.8633 846.508 83.59C859.428 91.19 868.611 101.26 874.058 113.8C879.631 126.34 882.418 139.83 882.418 154.27C882.418 164.277 880.455 174.41 876.528 184.67C872.728 194.93 866.901 204.177 859.048 212.41C851.195 220.643 841.315 226.723 829.408 230.65L881.848 338H826.558L776.208 237.3H722.248V338H673.038ZM722.248 190.94H794.828C804.075 190.94 811.358 189.23 816.678 185.81C822.125 182.263 825.988 177.703 828.268 172.13C830.548 166.557 831.688 160.667 831.688 154.46C831.688 148.887 830.611 143.313 828.458 137.74C826.305 132.167 822.568 127.543 817.248 123.87C811.928 120.197 804.455 118.36 794.828 118.36H722.248V190.94ZM989.459 338V119.31H914.029V72H1114.48V119.31H1038.67V338H989.459ZM1159.17 338V72H1208.38V338H1159.17ZM1358.25 342.56C1341.66 342.56 1326.59 339.647 1313.03 333.82C1299.48 327.993 1287.83 319.76 1278.07 309.12C1268.45 298.353 1261.23 285.687 1256.41 271.12L1301.06 254.59C1306.76 266.75 1314.68 276.757 1324.81 284.61C1335.07 292.337 1346.6 296.2 1359.39 296.2C1372.95 296.2 1383.71 293.35 1391.69 287.65C1399.8 281.95 1403.85 273.653 1403.85 262.76C1403.85 255.287 1401.45 249.08 1396.63 244.14C1391.95 239.073 1385.55 234.767 1377.44 231.22C1369.46 227.547 1360.41 224 1350.27 220.58C1340.52 217.287 1330.7 213.613 1320.82 209.56C1310.94 205.507 1301.89 200.567 1293.65 194.74C1285.42 188.787 1278.77 181.313 1273.7 172.32C1268.76 163.327 1266.29 152.307 1266.29 139.26C1266.29 126.213 1269.78 114.243 1276.74 103.35C1283.71 92.4567 1293.78 83.78 1306.95 77.32C1320.25 70.7333 1336.34 67.44 1355.21 67.44C1370.67 67.44 1384.35 70.1 1396.25 75.42C1408.29 80.6133 1418.23 87.7067 1426.08 96.7C1433.94 105.693 1439.38 115.89 1442.42 127.29L1398.34 141.92C1394.8 133.94 1389.35 127.29 1382 121.97C1374.78 116.523 1364.97 113.8 1352.55 113.8C1340.9 113.8 1331.84 116.08 1325.38 120.64C1318.92 125.2 1315.69 131.66 1315.69 140.02C1315.69 145.72 1317.85 150.597 1322.15 154.65C1326.59 158.577 1332.48 162.123 1339.82 165.29C1347.3 168.457 1355.72 171.687 1365.09 174.98C1375.61 178.527 1386.06 182.58 1396.44 187.14C1406.96 191.573 1416.46 197.02 1424.94 203.48C1433.56 209.94 1440.46 217.983 1445.65 227.61C1450.85 237.11 1453.44 248.763 1453.44 262.57C1453.44 279.543 1449.2 293.983 1440.71 305.89C1432.35 317.797 1421.02 326.917 1406.7 333.25C1392.39 339.457 1376.24 342.56 1358.25 342.56ZM1474.87 338L1576.14 72H1622.88L1724.53 338H1671.52L1650.43 281.76H1548.78L1528.07 338H1474.87ZM1564.74 236.73H1634.09L1607.49 165.48C1606.6 163.327 1605.65 160.92 1604.64 158.26C1603.63 155.6 1602.68 152.94 1601.79 150.28C1600.9 147.493 1600.14 145.087 1599.51 143.06C1598.88 145.087 1598.12 147.493 1597.23 150.28C1596.34 152.94 1595.39 155.6 1594.38 158.26C1593.37 160.92 1592.42 163.327 1591.53 165.48L1564.74 236.73ZM1763.68 338V72H1809.66L1914.54 228.56C1915.94 230.84 1917.71 233.943 1919.86 237.87C1922.14 241.67 1924.04 245.153 1925.56 248.32C1925.18 245.533 1924.87 242.177 1924.61 238.25C1924.49 234.197 1924.42 230.967 1924.42 228.56V72H1973.44V338H1929.55L1822.58 180.3C1821.19 178.147 1819.35 175.107 1817.07 171.18C1814.92 167.253 1813.08 163.707 1811.56 160.54C1811.94 163.707 1812.2 167.127 1812.32 170.8C1812.45 174.473 1812.51 177.64 1812.51 180.3V338H1763.68Z" fill="black"/>
</svg>
