<svg width="1982" height="441" viewBox="0 0 1982 441" fill="none" xmlns="http://www.w3.org/2000/svg">
<path d="M169.518 431.473C165.105 426.219 159.29 419.423 156.698 416.271C154.036 413.118 151.164 409.686 150.183 408.635C147.031 405.062 137.643 393.713 131.479 386.148C128.116 382.014 124.543 377.741 123.563 376.62C122.161 375.079 101.776 349.159 96.4515 342.224C91.828 336.199 80.9696 321.488 63.386 297.389C59.4629 291.995 52.3174 282.607 43.3504 271.119C40.0579 266.915 34.7338 259.98 31.4412 255.707C28.2187 251.503 19.8122 240.645 12.8068 231.678C0.127009 215.496 -1.48423 212.833 0.967664 211.432C1.5281 211.152 3.48963 208.981 5.38109 206.669C8.8838 202.255 13.5074 196.721 18.9015 190.556C24.2257 184.462 42.72 162.465 52.5276 150.625C64.787 135.774 69.971 129.609 76.6262 121.973C83.5616 113.987 83.9819 113.427 90.3568 105.791C93.229 102.358 96.2414 98.7152 97.082 97.7344C97.9227 96.7537 103.457 90.1686 109.342 83.0931C122.231 67.6812 122.021 67.8913 139.745 46.8751C155.647 28.0305 159.15 23.8272 169.728 10.7972C173.931 5.68321 177.925 1.05965 178.695 0.499212C180.517 -0.761763 181.497 0.00882412 187.102 7.01424C194.597 16.2614 204.965 28.8011 214.283 39.8697C223.6 50.8682 231.306 60.1854 246.227 78.5396C251.201 84.6343 255.475 89.8183 255.685 90.0285C255.895 90.2386 259.328 94.3718 263.181 99.2056C267.104 104.039 270.676 108.453 271.237 109.013C271.797 109.574 275.37 113.987 279.293 118.821C283.216 123.654 286.789 128.068 287.349 128.628C287.84 129.189 290.221 131.991 292.603 134.863C297.157 140.468 307.245 152.377 315.931 162.535C318.804 165.897 322.937 170.801 325.038 173.393C327.14 175.985 333.655 183.551 339.399 190.276C354.391 207.649 359.365 213.744 359.365 214.795C359.365 215.496 351.869 225.233 350.258 226.634C349.347 227.405 332.604 247.09 323.777 257.738C313.76 269.788 306.334 278.614 301.22 284.429C299.469 286.39 296.666 289.683 294.915 291.785C288.4 299.631 288.26 299.701 286.439 299.21C285.528 299 283.846 297.529 282.656 296.058C279.994 292.695 272.638 284.149 268.365 279.525C263.671 274.481 252.252 261.381 251.131 259.77C250.291 258.509 250.571 257.948 254.144 253.535C258.347 248.421 260.729 245.689 266.543 239.244C275.3 229.647 276 228.736 276 226.914C276 224.603 273.478 214.235 271.657 208.77C264.021 186.493 247.488 161.694 218.206 128.909C210.079 119.802 191.935 96.6136 183.179 84.214C181.637 82.0423 179.886 80.2209 179.256 80.2209C178.275 80.2209 175.613 83.0931 173.021 86.9461C172.46 87.7867 168.677 92.8306 164.614 98.1548C158.099 106.771 141.496 129.749 132.529 142.569C117.258 164.216 105.909 183.901 100.795 197.352C99.604 200.574 98.413 203.656 98.1328 204.217C97.7826 204.777 97.1521 207.019 96.6617 209.121C96.2414 211.222 95.5408 213.464 95.2606 214.094C94.9103 214.725 94.2798 218.858 93.7895 223.342C93.0889 229.857 93.0889 232.939 93.7895 239.384C94.2798 243.727 94.9103 247.65 95.1905 248.001C95.5408 248.421 96.1713 250.312 96.6617 252.204C97.8526 256.477 101.706 264.323 104.928 269.017C110.813 277.423 116.907 283.798 141.847 307.547C148.782 314.132 159.851 324.92 166.576 331.575C173.231 338.16 178.975 343.625 179.326 343.625C179.886 343.625 194.808 326.952 202.584 317.565C204.475 315.323 206.367 313.501 206.857 313.501C207.628 313.501 208.818 314.762 215.964 322.889C221.498 329.264 239.012 348.809 239.923 349.579C241.254 350.77 246.367 357.215 247.138 358.756C248.119 360.648 248.259 360.438 231.866 379.703C224.721 388.109 217.225 397.076 215.193 399.598C213.092 402.12 211.2 404.362 210.92 404.572C210.71 404.782 207.628 408.355 204.195 412.488C200.692 416.691 196.489 421.805 194.738 423.837C192.986 425.868 189.554 430.001 187.102 433.084C181.848 439.529 180.236 441 178.695 441C178.065 440.93 173.931 436.657 169.518 431.473Z" fill="#F8F9FA" fill-opacity="0.3"/>
<path d="M383.38 336L477.62 70H508.4L602.64 336H568.82L546.02 271.02H440.38L417.96 336H383.38ZM450.26 241.76H535.76L501.56 143.34C500.673 140.807 499.66 137.893 498.52 134.6C497.507 131.18 496.493 127.887 495.48 124.72C494.467 121.427 493.707 118.64 493.2 116.36C492.567 118.64 491.743 121.427 490.73 124.72C489.843 127.887 488.83 131.18 487.69 134.6C486.677 137.893 485.727 140.807 484.84 143.34L450.26 241.76ZM651.728 336V70H756.608C777.888 70 794.608 73.6733 806.768 81.02C819.055 88.3667 827.732 97.8667 832.798 109.52C837.992 121.047 840.588 133.08 840.588 145.62C840.588 156.133 838.498 166.52 834.318 176.78C830.265 186.913 823.678 195.843 814.558 203.57C805.438 211.297 793.468 216.68 778.648 219.72L835.648 336H798.408L743.688 222H684.788V336H651.728ZM684.788 191.22H757.368C769.782 191.22 779.598 189.003 786.818 184.57C794.165 180.137 799.358 174.5 802.398 167.66C805.565 160.82 807.148 153.727 807.148 146.38C807.148 139.793 805.692 133.017 802.778 126.05C799.992 118.957 794.988 113.003 787.768 108.19C780.548 103.25 770.415 100.78 757.368 100.78H684.788V191.22ZM954.021 336V101.54H879.921V70H1061.18V101.54H987.081V336H954.021ZM1117.08 336V70H1150.14V336H1117.08ZM1302.22 340.56C1286.76 340.56 1272.77 338.027 1260.23 332.96C1247.69 327.767 1237.05 320.737 1228.31 311.87C1219.69 302.877 1213.42 292.68 1209.5 281.28L1240.66 269.88C1245.98 281.66 1254.02 291.223 1264.79 298.57C1275.68 305.79 1288.41 309.4 1302.98 309.4C1318.94 309.4 1331.67 305.6 1341.17 298C1350.67 290.273 1355.42 279.127 1355.42 264.56C1355.42 254.3 1352.57 245.687 1346.87 238.72C1341.17 231.753 1333.76 225.927 1324.64 221.24C1315.52 216.427 1305.76 212.12 1295.38 208.32C1286.13 204.9 1276.88 201.1 1267.64 196.92C1258.39 192.74 1249.97 187.8 1242.37 182.1C1234.89 176.273 1228.88 169.243 1224.32 161.01C1219.76 152.65 1217.48 142.707 1217.48 131.18C1217.48 119.273 1220.71 108.38 1227.17 98.5C1233.63 88.4933 1242.94 80.5133 1255.1 74.56C1267.26 68.48 1281.95 65.44 1299.18 65.44C1313.24 65.44 1325.59 67.53 1336.23 71.71C1346.99 75.7633 1355.8 81.4 1362.64 88.62C1369.6 95.7133 1374.42 103.82 1377.08 112.94L1346.68 123.2C1343.51 115.727 1337.68 109.393 1329.2 104.2C1320.84 98.88 1310.07 96.22 1296.9 96.22C1282.84 96.22 1271.75 99.3233 1263.65 105.53C1255.67 111.737 1251.68 120.287 1251.68 131.18C1251.68 139.413 1254.34 146.317 1259.66 151.89C1265.1 157.337 1272.2 162.087 1280.94 166.14C1289.68 170.193 1299.05 174.12 1309.06 177.92C1318.43 181.467 1327.8 185.52 1337.18 190.08C1346.68 194.513 1355.35 199.96 1363.21 206.42C1371.19 212.88 1377.58 220.797 1382.4 230.17C1387.21 239.417 1389.62 250.627 1389.62 263.8C1389.62 280.14 1385.82 294.01 1378.22 305.41C1370.62 316.81 1360.23 325.55 1347.06 331.63C1333.88 337.583 1318.94 340.56 1302.22 340.56ZM1422.81 336L1517.05 70H1547.83L1642.07 336H1608.25L1585.45 271.02H1479.81L1457.39 336H1422.81ZM1489.69 241.76H1575.19L1540.99 143.34C1540.11 140.807 1539.09 137.893 1537.95 134.6C1536.94 131.18 1535.93 127.887 1534.91 124.72C1533.9 121.427 1533.14 118.64 1532.63 116.36C1532 118.64 1531.18 121.427 1530.16 124.72C1529.28 127.887 1528.26 131.18 1527.12 134.6C1526.11 137.893 1525.16 140.807 1524.27 143.34L1489.69 241.76ZM1691.16 336V70H1724.6L1842.4 259.24C1844.3 262.407 1846.14 265.573 1847.91 268.74C1849.69 271.907 1851.52 275.327 1853.42 279C1853.3 275.707 1853.11 272.413 1852.85 269.12C1852.73 265.827 1852.66 262.66 1852.66 259.62V70H1885.72V336H1853.8L1734.1 146C1732.46 143.087 1730.68 140.047 1728.78 136.88C1727.01 133.713 1725.24 130.547 1723.46 127.38C1723.72 130.167 1723.91 133.207 1724.03 136.5C1724.16 139.793 1724.22 142.96 1724.22 146V336H1691.16Z" fill="#F8F9FA" fill-opacity="0.3"/>
</svg>
